<?xml version="1.0" encoding="UTF-8"?>
<svg xmlns="http://www.w3.org/2000/svg" xmlns:xlink="http://www.w3.org/1999/xlink" height="1024" node-id="1" sillyvg="true" template-height="1024" template-width="1024" version="1.1" viewBox="0 0 1024 1024" width="1024"><defs node-id="45"/><g node-id="124"><path d="M 225.22 644.79 C 220.17 649.90 215.70 655.08 210.55 659.44 C 205.65 663.59 199.18 664.90 193.75 661.47 C 188.90 658.41 184.72 654.39 179.46 651.60 C 175.41 649.45 176.40 644.84 178.17 640.83 C 178.82 639.36 178.37 637.43 178.51 635.71 C 178.72 633.32 178.25 630.45 179.40 628.62 C 185.40 619.06 191.51 609.55 198.14 600.42 C 210.44 583.49 223.13 566.85 235.62 550.06 C 236.18 549.31 236.76 548.21 236.64 547.36 C 235.13 536.37 241.60 528.98 248.55 522.23 C 259.50 511.59 270.79 501.30 282.25 491.22 C 312.35 464.75 347.12 446.68 385.65 436.26 C 409.63 429.77 434.07 424.98 458.99 419.27 L 458.99 400.37 C 450.72 399.17 442.74 398.02 434.97 396.89 C 429.74 401.07 424.41 405.78 418.63 409.82 C 412.75 413.92 405.86 415.31 398.73 414.98 C 391.80 414.66 386.02 411.83 382.78 405.52 C 381.11 402.27 379.03 401.63 375.74 401.85 C 367.13 402.44 358.93 400.66 350.99 397.25 C 339.22 392.20 334.19 382.79 333.18 370.62 C 333.07 369.30 333.04 367.98 332.95 366.18 C 330.43 365.61 327.88 365.10 325.37 364.45 C 307.76 359.92 301.13 351.51 302.65 330.42 C 303.48 319.00 309.07 310.34 320.06 305.72 C 323.27 304.37 326.20 302.29 329.47 301.16 C 339.02 297.84 341.49 291.45 339.43 280.76 C 338.43 275.58 336.40 270.60 335.11 265.47 C 332.49 255.02 337.20 248.00 347.92 247.20 C 350.78 246.99 352.44 246.20 353.47 243.45 C 358.08 231.10 369.86 226.17 383.34 230.74 C 389.46 232.81 395.38 235.47 401.36 237.91 C 410.16 241.50 416.85 238.09 417.83 228.62 C 419.05 216.93 425.71 208.95 434.61 202.70 C 455.20 188.24 478.68 192.38 493.78 212.66 C 495.26 214.65 496.82 216.58 498.40 218.62 C 517.61 210.35 535.34 212.85 551.00 226.32 C 567.64 240.64 566.26 259.34 562.20 278.76 C 563.70 279.35 565.17 279.97 566.67 280.52 C 589.24 288.68 595.55 310.03 581.16 329.26 C 575.69 336.57 568.65 340.94 559.49 342.01 C 558.29 342.15 556.58 343.61 556.25 344.77 C 549.86 367.68 533.60 380.77 512.48 389.05 C 510.66 389.76 508.62 389.87 505.81 390.44 C 506.24 397.81 506.68 405.33 507.15 413.37 C 518.67 412.11 529.67 410.86 540.69 409.71 C 555.54 408.16 570.38 406.12 585.27 405.30 C 613.32 403.75 634.10 391.74 646.28 365.81 C 651.04 355.67 651.60 355.70 662.80 357.07 C 663.93 357.21 665.06 357.33 666.46 357.49 C 672.68 343.06 678.88 328.78 684.99 314.47 C 687.93 307.60 690.78 300.70 693.53 293.75 C 694.09 292.34 694.59 290.52 694.17 289.19 C 691.29 279.98 693.19 271.07 695.81 262.29 C 697.31 257.26 699.93 255.73 707.78 253.60 C 697.36 247.21 686.98 241.02 676.79 234.51 C 670.34 230.39 670.40 228.90 676.73 224.92 C 697.29 212.00 717.93 199.22 738.47 186.28 C 758.47 173.68 778.38 160.95 798.32 148.28 C 798.74 148.01 799.12 147.58 799.58 147.48 C 802.84 146.75 806.11 146.09 809.37 145.41 C 809.87 148.41 811.08 151.48 810.76 154.39 C 808.26 177.36 805.44 200.30 802.78 223.25 C 800.24 245.22 797.85 267.21 795.21 289.17 C 794.81 292.51 793.44 295.72 792.28 299.85 C 778.31 291.73 765.07 284.03 751.55 276.17 C 743.57 294.27 736.04 311.82 728.12 329.19 C 720.55 345.78 712.55 362.17 704.83 378.69 C 704.21 380.03 704.26 381.69 704.07 383.21 C 703.73 385.88 704.32 389.15 702.98 391.14 C 688.10 413.39 674.21 436.32 655.98 456.21 C 641.63 471.86 624.27 481.74 603.90 486.89 C 597.81 488.43 591.81 490.33 585.53 492.13 C 586.75 495.98 587.58 499.64 589.05 503.02 C 593.29 512.70 592.20 521.53 584.94 529.21 C 581.65 532.69 577.93 535.89 573.95 538.54 C 571.19 540.38 570.61 541.96 571.57 545.00 C 577.27 563.01 582.21 581.28 588.53 599.07 C 598.83 628.09 609.99 656.80 620.80 685.65 C 637.97 731.49 655.14 777.34 672.30 823.18 C 674.40 828.78 676.72 834.30 678.52 839.99 C 681.42 849.15 679.76 852.40 671.11 855.74 C 672.10 862.42 673.00 869.13 674.20 875.79 C 674.36 876.68 675.95 877.62 677.06 878.00 C 687.78 881.68 696.30 888.20 702.59 897.59 C 704.41 900.32 706.55 901.18 709.99 901.16 C 743.61 900.98 777.23 901.03 810.85 901.21 C 812.52 901.21 814.18 902.90 815.85 903.80 C 814.18 904.71 812.53 906.39 810.85 906.40 C 785.24 906.62 759.63 906.67 734.02 906.65 C 715.80 906.64 697.58 906.36 679.36 906.38 C 664.61 906.40 649.87 906.85 635.12 906.82 C 621.44 906.79 607.76 906.25 594.08 906.15 C 583.74 906.08 573.39 906.43 563.05 906.45 C 544.74 906.48 526.42 906.33 508.11 906.37 C 495.39 906.40 482.67 906.74 469.95 906.77 C 454.42 906.81 438.89 906.64 423.36 906.63 C 402.44 906.61 381.53 906.63 360.61 906.66 C 328.68 906.71 296.76 906.85 264.83 906.79 C 261.73 906.79 260.10 907.86 258.54 910.41 C 253.51 918.66 246.86 924.79 236.80 926.42 C 231.64 927.26 229.48 925.02 230.57 919.76 C 231.41 915.72 231.81 911.59 232.53 906.63 C 226.72 906.63 221.50 906.63 216.28 906.63 C 195.52 906.58 174.77 906.59 154.02 906.36 C 152.40 906.34 150.79 904.68 149.18 903.78 C 150.85 902.89 152.52 901.24 154.20 901.23 C 179.16 901.03 204.11 901.06 229.07 901.01 C 230.06 901.01 231.04 900.89 233.12 900.75 C 233.12 896.47 233.00 892.21 233.15 887.96 C 233.31 883.49 233.56 879.01 234.10 874.58 C 234.87 868.28 238.85 864.27 245.30 862.81 C 250.38 861.66 253.45 855.46 251.50 850.81 C 245.77 837.12 243.44 823.10 248.03 808.54 C 250.82 799.68 257.05 793.17 263.14 786.56 C 277.87 770.56 292.94 754.85 307.19 738.44 C 317.63 726.42 327.67 713.93 336.66 700.82 C 348.19 684.00 354.94 664.68 361.88 645.65 C 371.07 620.42 379.59 594.95 388.42 569.58 C 388.85 568.35 389.44 567.18 389.54 566.94 C 385.97 560.73 382.34 555.35 379.65 549.53 C 374.44 538.25 366.26 534.25 352.84 536.13 C 335.62 538.54 323.12 548.60 311.30 560.17 C 304.89 566.45 298.36 572.66 291.49 578.44 C 286.71 582.46 281.02 584.72 274.40 584.06 C 272.84 583.90 270.53 584.95 269.57 586.21 C 264.11 593.31 258.20 600.24 253.98 608.06 C 251.26 613.09 251.20 619.55 249.90 625.36 C 248.49 631.68 247.23 638.05 245.50 644.28 C 244.38 648.33 242.55 652.49 237.52 652.76 C 232.55 653.02 228.45 650.99 226.07 646.28 C 225.78 645.71 225.44 645.17 225.20 644.75 Z M 365.35 237.21 C 375.98 236.55 385.97 238.32 394.89 245.08 C 395.87 244.27 396.89 243.43 398.69 241.94 C 391.65 239.45 385.59 236.68 379.22 235.25 C 374.73 234.24 369.52 233.08 365.46 237.27 C 360.55 238.69 359.22 242.81 357.33 246.51 C 357.65 246.78 357.98 247.05 358.30 247.32 C 360.74 244.73 363.19 242.14 364.91 240.31 C 365.13 238.78 365.24 238.00 365.35 237.21 Z M 416.85 568.85 C 419.18 568.85 421.56 569.15 423.83 568.80 C 441.07 566.13 458.36 563.74 475.49 560.46 C 498.93 555.97 522.21 550.64 545.62 545.95 C 558.80 543.31 569.66 536.59 579.41 527.82 C 585.97 521.93 588.04 514.56 584.85 506.09 C 582.57 500.03 580.22 493.98 577.77 487.99 C 573.49 477.54 569.04 467.15 564.87 456.66 C 564.42 455.54 565.35 453.87 565.63 452.45 C 567.00 453.00 568.57 453.30 569.68 454.18 C 570.47 454.81 570.66 456.21 571.10 457.28 C 574.76 466.23 578.49 475.16 582.01 484.16 C 583.24 487.30 584.54 488.09 587.91 486.56 C 592.86 484.31 598.09 482.54 603.35 481.12 C 618.59 477.00 632.75 471.08 644.51 460.02 C 666.60 439.24 681.55 413.14 698.48 388.51 C 699.25 387.39 699.28 384.82 698.52 383.74 C 688.84 370.12 674.99 363.96 658.84 361.98 C 655.40 361.56 653.64 363.20 652.25 365.99 C 650.26 369.99 648.21 373.98 645.99 377.86 C 637.30 393.04 624.40 403.69 607.61 407.52 C 591.92 411.10 575.62 412.10 559.56 413.94 C 544.54 415.65 529.41 416.51 514.44 418.56 C 495.05 421.22 475.80 424.91 456.43 427.74 C 434.07 431.02 411.71 434.28 390.19 441.49 C 356.24 452.86 322.84 465.60 294.75 488.64 C 279.52 501.13 265.01 514.53 250.62 528.00 C 246.58 531.78 242.19 536.04 241.92 542.56 C 241.33 556.90 248.85 566.38 260.26 573.45 C 273.00 581.34 280.74 580.86 291.81 570.98 C 300.49 563.23 308.45 554.67 317.09 546.87 C 329.37 535.78 343.64 529.30 360.57 530.05 C 371.51 530.53 379.57 535.31 383.51 545.96 C 383.80 546.74 384.18 547.48 384.49 548.25 C 390.37 562.82 401.30 569.56 416.86 568.86 Z M 498.60 690.38 C 479.78 710.00 462.03 728.94 443.79 747.41 C 412.77 778.82 381.49 809.97 350.22 841.13 C 336.18 855.12 321.85 868.81 307.74 882.73 C 303.71 886.70 299.54 887.24 294.70 884.43 C 291.76 882.72 288.68 881.27 284.97 879.33 C 283.50 892.17 276.19 890.65 268.16 886.28 C 266.73 891.67 265.52 896.22 264.26 900.97 L 632.56 900.97 C 630.04 890.21 633.73 879.27 629.90 869.57 C 623.08 870.71 616.84 873.03 610.85 872.52 C 593.63 871.04 580.23 862.76 572.66 846.71 C 554.37 807.93 536.31 769.04 518.04 730.25 C 511.83 717.06 505.28 704.02 498.61 690.37 Z M 401.87 282.88 C 402.44 283.16 402.97 283.59 403.57 283.71 C 413.93 285.88 420.99 291.93 423.84 302.09 C 426.87 312.89 423.18 322.19 415.59 329.86 C 406.52 339.03 398.79 339.60 387.94 332.62 C 387.24 332.17 386.53 331.75 385.81 331.34 C 382.04 329.19 378.60 329.73 375.15 332.28 C 369.32 336.59 368.52 342.71 368.76 349.20 C 369.17 360.15 378.80 365.36 388.18 359.80 C 394.17 356.24 394.06 356.32 398.32 362.17 C 408.27 375.85 420.98 386.04 437.12 391.47 C 448.74 395.38 460.65 394.79 472.62 393.08 C 490.13 390.59 507.10 386.53 522.98 378.34 C 548.78 365.04 559.45 334.45 547.51 307.97 C 540.10 291.53 529.16 277.61 517.34 263.79 C 512.70 271.06 506.59 275.81 498.03 276.80 C 489.32 277.80 482.41 274.09 476.27 268.39 C 470.80 281.87 465.04 286.57 453.60 286.40 C 441.91 286.23 434.02 279.32 427.14 270.03 C 420.56 278.60 411.26 280.41 401.86 282.87 Z M 725.58 249.75 C 726.12 248.71 726.62 247.66 727.19 246.65 C 731.44 239.12 736.58 236.55 743.91 238.27 C 750.27 239.77 754.08 245.34 754.02 253.57 C 753.98 257.88 753.64 262.21 753.13 266.49 C 752.75 269.63 753.30 271.74 756.40 273.38 C 761.97 276.33 767.25 279.82 772.71 282.99 C 778.22 286.19 783.81 289.27 789.74 292.61 C 795.23 244.62 800.62 197.52 806.16 149.17 C 763.15 176.42 721.07 203.09 678.41 230.12 C 689.59 236.88 700.19 243.28 710.79 249.69 C 717.12 244.76 719.39 244.76 725.58 249.75 Z M 700.67 375.10 C 702.02 372.78 704.22 369.66 705.76 366.24 C 719.22 336.39 733.00 306.68 745.62 276.48 C 748.75 268.99 748.32 259.89 748.82 251.50 C 749.06 247.45 746.32 244.25 742.15 243.17 C 737.84 242.05 734.69 244.01 732.63 247.75 C 731.59 249.63 730.48 251.55 729.95 253.60 C 728.23 260.31 726.88 267.10 725.14 273.80 C 724.74 275.34 723.34 276.62 722.40 278.02 C 721.63 276.43 720.10 274.79 720.22 273.27 C 720.58 268.82 721.39 264.38 722.42 260.02 C 723.31 256.22 722.45 253.01 718.83 251.98 C 715.18 250.94 714.14 254.25 713.61 257.15 C 712.69 262.21 712.10 267.35 710.96 272.36 C 710.57 274.07 708.94 275.49 707.88 277.04 C 707.26 275.28 706.04 273.49 706.14 271.77 C 706.38 267.69 707.24 263.65 707.85 259.60 C 707.46 259.28 707.07 258.96 706.69 258.65 C 704.59 260.49 701.55 261.93 700.56 264.24 C 697.37 271.74 696.77 279.60 699.13 287.64 C 699.81 289.96 699.88 292.96 698.99 295.15 C 693.44 308.85 687.56 322.41 681.74 336.00 C 678.51 343.54 675.18 351.04 672.36 357.50 C 682.13 363.58 691.21 369.22 700.67 375.10 Z M 193.09 653.17 C 195.55 657.51 197.57 658.50 201.62 657.59 C 208.07 656.14 212.27 651.63 216.09 646.74 C 218.86 643.20 221.26 639.39 224.00 635.83 C 224.60 635.04 226.19 634.18 226.84 634.46 C 227.82 634.88 228.59 636.20 229.06 637.30 C 229.42 638.16 228.81 639.56 229.30 640.21 C 231.30 642.84 233.56 645.28 235.72 647.78 C 237.47 645.62 240.15 643.71 240.81 641.26 C 242.95 633.26 244.15 625.01 246.12 616.95 C 247.36 611.91 248.62 606.65 251.15 602.22 C 255.22 595.09 260.35 588.57 265.17 581.60 C 252.89 576.32 243.11 568.62 238.16 555.38 C 220.98 578.81 204.33 601.43 187.82 624.14 C 186.05 626.58 185.08 629.59 183.60 632.59 C 188.93 632.71 190.35 622.87 196.58 628.00 C 192.32 632.67 188.33 636.87 184.55 641.25 C 182.90 643.17 180.12 645.80 183.12 647.96 C 184.83 649.19 188.59 648.92 190.73 647.89 C 193.94 646.33 196.44 643.36 199.46 641.32 C 200.56 640.58 202.30 640.79 203.74 640.57 C 203.44 642.02 203.63 643.96 202.76 644.83 C 199.83 647.74 196.52 650.28 193.09 653.18 Z M 462.40 569.29 C 458.08 568.62 455.42 569.19 455.12 573.80 C 454.93 576.87 454.35 579.93 453.83 582.97 C 451.40 597.07 449.98 611.45 446.20 625.18 C 441.03 643.96 434.30 662.28 424.25 679.26 C 416.63 692.13 411.16 706.39 402.69 718.62 C 386.28 742.34 369.76 766.21 350.83 787.88 C 331.55 809.96 309.39 829.54 288.33 850.05 C 282.81 855.42 276.70 860.19 270.80 865.30 C 274.34 868.42 276.41 865.56 278.38 863.90 C 289.14 854.85 300.25 846.15 310.35 836.40 C 330.16 817.28 352.12 800.27 368.65 777.88 C 382.06 759.71 396.08 741.93 408.52 723.11 C 417.89 708.93 425.76 693.65 433.24 678.34 C 441.52 661.40 449.01 644.02 452.95 625.42 C 455.40 613.85 457.66 602.22 459.69 590.57 C 460.90 583.60 461.50 576.53 462.40 569.28 Z M 650.51 862.22 C 651.52 862.20 652.54 862.18 653.55 862.16 C 653.80 860.13 654.82 857.82 654.19 856.13 C 633.54 800.93 612.52 745.88 592.03 690.62 C 579.70 657.37 568.01 623.87 556.35 590.37 C 552.18 578.40 548.96 566.10 545.20 553.60 C 543.33 554.09 541.66 554.53 539.52 555.09 C 546.22 577.47 552.75 599.31 559.48 621.80 C 589.64 701.45 620.07 781.83 650.51 862.22 Z M 447.58 731.21 C 448.00 731.49 448.43 731.77 448.85 732.05 C 449.34 731.64 449.86 731.26 450.30 730.80 C 463.43 717.20 476.71 703.73 489.64 689.95 C 507.85 670.54 525.79 650.88 543.88 631.35 C 546.10 628.96 547.37 626.77 543.52 624.49 C 531.46 637.31 519.32 650.06 507.35 662.97 C 491.40 680.15 475.44 697.34 459.76 714.77 C 455.22 719.82 451.61 725.70 447.57 731.20 Z M 422.57 226.02 C 422.85 226.43 423.14 226.84 423.42 227.25 C 424.95 226.42 426.54 225.69 427.99 224.74 C 433.40 221.19 438.72 217.50 444.15 213.99 C 445.92 212.85 448.00 211.29 449.84 211.40 C 452.07 211.53 453.95 212.83 454.37 209.32 C 454.41 208.95 456.13 208.78 456.72 208.62 C 457.80 209.75 458.69 211.45 459.67 211.50 C 460.62 211.55 461.63 209.86 462.68 209.03 C 463.58 208.31 464.56 207.19 465.54 207.15 C 472.07 206.87 478.43 207.36 483.36 212.58 C 483.79 213.04 484.96 212.80 486.11 212.91 C 481.18 204.66 467.59 198.44 457.80 199.42 C 440.53 201.15 429.22 210.54 422.55 226.02 Z M 634.48 867.11 C 635.55 872.12 636.34 876.47 637.51 880.71 C 637.76 881.62 639.30 882.64 640.36 882.79 C 649.68 884.11 658.53 882.60 666.55 877.55 C 667.81 876.76 669.16 874.63 668.99 873.32 C 668.34 868.32 667.08 863.40 665.84 857.47 C 657.31 867.69 647.08 870.16 634.47 867.10 Z M 559.56 254.05 C 558.25 227.24 523.39 211.24 504.73 222.23 C 510.09 223.11 516.10 223.41 521.67 225.15 C 537.70 230.14 554.24 234.81 559.55 254.05 Z M 277.63 883.97 C 280.86 877.37 280.76 877.54 274.83 874.09 C 270.55 871.60 266.51 868.69 262.50 865.78 C 260.30 864.19 258.39 862.20 256.25 860.31 C 253.98 863.27 252.09 865.73 250.14 868.26 C 257.03 877.41 266.68 881.55 277.63 883.97 Z M 501.25 394.97 C 496.51 399.94 492.58 404.88 487.81 408.80 C 483.05 412.73 477.45 415.64 472.57 418.76 C 481.18 417.47 490.32 416.20 499.41 414.63 C 500.50 414.44 502.10 412.58 502.10 411.51 C 502.07 406.08 501.59 400.65 501.25 394.97 Z M 387.48 403.03 C 389.50 407.23 393.36 409.96 398.66 410.01 C 411.68 410.13 421.19 403.65 429.20 393.79 C 425.42 391.75 422.04 389.93 418.19 387.86 C 418.52 389.54 418.76 390.65 418.95 391.76 C 420.22 399.33 419.86 399.93 412.55 402.34 C 411.77 402.60 410.96 403.00 410.17 403.00 C 402.50 403.05 394.83 403.03 387.48 403.03 Z M 338.93 373.72 C 341.94 390.50 359.53 399.35 379.74 395.49 C 382.18 388.87 372.57 393.27 373.57 388.10 C 366.92 392.16 345.54 387.88 338.93 373.72 Z M 438.36 275.29 C 445.98 280.72 452.63 282.97 460.50 280.22 C 466.74 278.04 469.06 273.14 470.40 266.95 C 461.09 273.62 451.01 276.91 438.36 275.29 Z M 308.32 328.58 C 304.65 343.55 310.65 356.34 325.19 358.62 C 316.08 350.74 311.47 340.50 308.32 328.58 Z M 343.67 273.26 C 344.99 270.23 346.72 267.99 346.80 265.70 C 346.94 261.46 346.11 257.20 345.69 253.01 C 338.45 254.74 337.12 262.08 343.67 273.26 Z M 361.05 316.30 C 360.65 316.05 360.26 315.81 359.86 315.56 C 353.62 319.94 345.77 322.40 341.98 329.71 C 342.30 330.20 342.62 330.68 342.94 331.17 C 344.61 330.26 346.28 329.35 347.77 328.54 C 348.01 329.07 348.26 329.60 348.47 330.06 C 351.14 327.82 353.86 325.95 356.04 323.58 C 358.02 321.44 359.40 318.75 361.05 316.30 Z M 412.01 293.91 C 413.98 301.64 415.90 309.15 417.89 316.92 C 421.99 306.96 419.60 298.05 412.01 293.91 Z M 578.53 295.56 C 579.47 302.38 580.44 309.46 581.40 316.46 C 585.79 308.52 584.73 301.20 578.53 295.56 Z" fill="#000000" fill-rule="nonzero" group-id="1" node-id="52" stroke="none" target-height="781.85" target-width="666.67" target-x="149.18" target-y="145.41"/><path d="M 246.88 694.65 C 246.11 696.11 245.64 697.38 244.87 698.43 C 239.40 705.95 233.88 713.42 228.37 720.90 C 227.98 721.43 227.59 722.16 227.04 722.35 C 225.66 722.82 224.18 723.03 222.75 723.34 C 222.66 721.85 221.94 719.97 222.58 718.95 C 225.75 713.89 229.22 709.02 232.70 704.17 C 235.31 700.53 237.96 696.90 240.87 693.51 C 241.65 692.60 243.47 692.19 244.77 692.26 C 245.51 692.30 246.17 693.79 246.88 694.65 Z" fill="#000000" fill-rule="nonzero" group-id="1" node-id="54" stroke="none" target-height="31.150024" target-width="24.940002" target-x="221.94" target-y="692.19"/><path d="M 306.44 633.80 C 303.52 633.96 301.77 630.85 303.38 628.22 C 307.70 621.14 312.23 614.17 316.97 607.37 C 317.74 606.26 320.01 606.19 321.58 605.65 C 321.92 607.26 323.09 609.37 322.47 610.41 C 318.02 617.82 313.22 625.02 308.46 632.24 C 307.96 633.00 306.95 633.43 306.44 633.81 Z" fill="#000000" fill-rule="nonzero" group-id="1" node-id="56" stroke="none" target-height="28.309998" target-width="21.320007" target-x="301.77" target-y="605.65"/><path d="M 257.02 711.13 C 256.71 712.06 256.47 713.03 256.07 713.93 C 253.16 720.37 250.34 726.85 247.17 733.16 C 246.56 734.38 244.54 734.89 243.17 735.72 C 242.70 734.02 241.37 731.97 241.89 730.68 C 244.64 723.95 247.76 717.37 251.02 710.87 C 251.63 709.65 253.36 708.60 254.75 708.30 C 255.80 708.07 257.14 709.16 258.35 709.66 C 257.91 710.15 257.47 710.64 257.03 711.13 Z" fill="#000000" fill-rule="nonzero" group-id="1" node-id="58" stroke="none" target-height="27.649963" target-width="16.980011" target-x="241.37" target-y="708.07"/><path d="M 336.44 628.40 C 335.78 629.63 335.36 630.73 334.68 631.63 C 330.69 636.92 326.64 642.17 322.59 647.40 C 322.09 648.05 321.49 648.94 320.81 649.06 C 319.35 649.33 317.33 649.74 316.45 649.01 C 315.70 648.38 315.58 645.73 316.28 644.83 C 320.96 638.81 325.85 632.96 330.89 627.24 C 331.66 626.37 333.51 626.20 334.85 626.20 C 335.37 626.20 335.89 627.59 336.44 628.39 Z" fill="#000000" fill-rule="nonzero" group-id="1" node-id="60" stroke="none" target-height="23.539978" target-width="20.860016" target-x="315.58" target-y="626.2"/><path d="M 416.85 568.85 C 401.29 569.55 390.36 562.81 384.48 548.24 C 384.17 547.47 383.79 546.73 383.50 545.95 C 379.55 535.31 371.50 530.53 360.56 530.04 C 343.63 529.29 329.37 535.78 317.08 546.86 C 308.44 554.66 300.49 563.22 291.80 570.97 C 280.73 580.85 272.99 581.33 260.25 573.44 C 248.84 566.38 241.32 556.89 241.91 542.55 C 242.18 536.03 246.57 531.77 250.61 527.99 C 265.00 514.52 279.51 501.12 294.74 488.63 C 322.84 465.59 356.23 452.85 390.18 441.48 C 411.70 434.27 434.05 431.01 456.42 427.73 C 475.79 424.89 495.04 421.20 514.43 418.55 C 529.40 416.50 544.53 415.65 559.55 413.93 C 575.62 412.10 591.91 411.09 607.60 407.51 C 624.39 403.68 637.29 393.03 645.98 377.85 C 648.20 373.97 650.25 369.99 652.24 365.98 C 653.63 363.19 655.39 361.55 658.83 361.97 C 674.98 363.94 688.82 370.11 698.51 383.73 C 699.28 384.81 699.24 387.38 698.47 388.50 C 681.54 413.13 666.59 439.23 644.50 460.01 C 632.74 471.07 618.58 476.99 603.34 481.11 C 598.08 482.53 592.85 484.30 587.90 486.55 C 584.53 488.08 583.23 487.29 582.00 484.15 C 578.48 475.15 574.74 466.22 571.09 457.27 C 570.65 456.20 570.47 454.80 569.67 454.17 C 568.56 453.29 566.99 452.99 565.62 452.44 C 565.33 453.86 564.41 455.53 564.86 456.65 C 569.03 467.14 573.49 477.53 577.76 487.98 C 580.21 493.98 582.56 500.02 584.84 506.08 C 588.03 514.54 585.96 521.91 579.40 527.81 C 569.65 536.57 558.79 543.30 545.61 545.94 C 522.20 550.63 498.93 555.96 475.48 560.45 C 458.36 563.73 441.06 566.12 423.82 568.79 C 421.55 569.14 419.17 568.84 416.84 568.84 Z" fill="#ffffff" fill-rule="nonzero" group-id="1" node-id="62" stroke="none" target-height="219.78003" target-width="457.96002" target-x="241.31999" target-y="361.55"/><path d="M 498.60 690.38 C 505.26 704.03 511.81 717.07 518.03 730.26 C 536.30 769.05 554.36 807.94 572.65 846.72 C 580.22 862.76 593.62 871.04 610.84 872.53 C 616.83 873.05 623.07 870.72 629.89 869.58 C 633.71 879.27 630.03 890.22 632.55 900.98 L 264.25 900.98 C 265.51 896.22 266.72 891.67 268.15 886.29 C 276.18 890.65 283.49 892.18 284.96 879.34 C 288.67 881.27 291.75 882.73 294.69 884.44 C 299.53 887.25 303.70 886.71 307.73 882.74 C 321.84 868.83 336.17 855.13 350.21 841.14 C 381.48 809.98 412.76 778.83 443.78 747.42 C 462.02 728.96 479.77 710.01 498.59 690.39 Z" fill="#ffffff" fill-rule="nonzero" group-id="1" node-id="64" stroke="none" target-height="210.59998" target-width="369.46002" target-x="264.25" target-y="690.38"/><path d="M 401.87 282.88 C 411.26 280.42 420.56 278.61 427.15 270.04 C 434.03 279.34 441.91 286.24 453.61 286.41 C 465.06 286.58 470.81 281.88 476.28 268.40 C 482.42 274.10 489.33 277.81 498.04 276.81 C 506.60 275.82 512.71 271.07 517.35 263.80 C 529.17 277.62 540.10 291.54 547.52 307.98 C 559.46 334.47 548.79 365.05 522.99 378.35 C 507.11 386.54 490.14 390.60 472.63 393.09 C 460.66 394.79 448.75 395.39 437.13 391.48 C 420.99 386.05 408.28 375.86 398.33 362.18 C 394.07 356.33 394.18 356.25 388.19 359.81 C 378.82 365.38 369.19 360.16 368.77 349.21 C 368.52 342.72 369.33 336.60 375.16 332.29 C 378.61 329.74 382.05 329.19 385.82 331.35 C 386.54 331.76 387.26 332.18 387.95 332.63 C 398.80 339.61 406.52 339.04 415.60 329.87 C 423.19 322.20 426.89 312.90 423.85 302.10 C 420.99 291.93 413.93 285.89 403.58 283.72 C 402.98 283.59 402.44 283.17 401.88 282.89 Z M 491.39 346.06 C 497.20 344.29 503.45 343.35 508.70 340.54 C 516.53 336.35 520.67 328.98 521.08 319.97 C 521.14 318.60 519.58 317.15 518.76 315.74 C 517.80 317.04 516.25 318.23 516.00 319.65 C 514.97 325.34 513.45 330.81 508.66 334.43 C 498.96 341.76 478.45 343.07 470.92 329.87 C 470.35 328.87 469.68 327.80 468.77 327.15 C 467.72 326.39 466.36 326.06 465.14 325.55 C 464.85 327.03 463.86 328.86 464.40 329.92 C 465.64 332.39 467.36 334.76 469.35 336.69 C 475.37 342.49 482.70 345.20 491.39 346.07 Z M 497.70 314.44 C 496.71 315.94 495.82 317.02 495.30 318.25 C 495.18 318.54 496.54 319.94 496.78 319.83 C 499.82 318.50 502.79 316.99 505.77 315.52 C 504.26 313.87 503.06 311.39 501.19 310.71 C 494.74 308.33 490.10 304.12 486.79 298.31 C 485.48 296.02 484.76 293.40 483.45 291.11 C 482.92 290.19 481.54 289.76 480.55 289.10 C 479.96 290.16 479.11 291.16 478.86 292.30 C 478.67 293.17 479.15 294.25 479.51 295.17 C 482.99 304.06 488.68 310.89 497.69 314.45 Z M 502.13 294.50 C 505.21 297.35 506.92 300.12 509.20 300.74 C 512.53 301.65 514.30 298.74 514.42 295.64 C 514.55 292.26 513.34 288.79 509.40 289.13 C 507.30 289.31 505.41 291.96 502.13 294.50 Z M 468.99 306.97 C 466.93 305.35 464.98 302.57 462.78 302.36 C 459.20 302.01 458.04 305.36 458.00 308.58 C 457.96 311.86 459.57 314.05 463.02 314.09 C 466.93 314.14 467.92 311.41 468.99 306.96 Z M 375.19 337.75 C 380.48 341.23 384.35 343.88 388.33 346.32 C 389.40 346.98 390.84 347.04 392.11 347.37 C 392.05 345.87 392.57 343.53 391.82 343.01 C 388.10 340.42 384.16 338.08 380.05 336.17 C 379.00 335.68 377.07 337.09 375.19 337.75 Z M 445.26 300.78 C 448.05 298.22 450.29 295.31 453.24 293.71 C 456.28 292.06 460.01 291.69 463.52 290.73 C 461.05 286.95 455.36 287.46 449.26 291.74 C 444.03 295.41 442.96 297.68 445.26 300.77 Z M 508.81 278.91 C 508.68 278.62 508.55 277.65 508.02 277.27 C 505.51 275.52 493.44 278.26 491.83 280.94 C 491.49 281.51 491.38 282.80 491.72 283.07 C 492.37 283.59 493.54 284.02 494.27 283.79 C 499.07 282.30 503.81 280.62 508.82 278.91 Z" fill="#ffffff" fill-rule="nonzero" group-id="1" node-id="66" stroke="none" target-height="131.59006" target-width="190.94003" target-x="368.52" target-y="263.8"/><path d="M 725.58 249.75 C 719.38 244.76 717.12 244.76 710.79 249.69 C 700.19 243.28 689.59 236.88 678.41 230.12 C 721.07 203.09 763.15 176.43 806.16 149.17 C 800.63 197.52 795.24 244.62 789.74 292.61 C 783.80 289.26 778.22 286.19 772.71 282.99 C 767.25 279.82 761.97 276.33 756.40 273.38 C 753.30 271.74 752.75 269.63 753.13 266.49 C 753.65 262.21 753.99 257.88 754.02 253.57 C 754.09 245.34 750.27 239.77 743.91 238.27 C 736.58 236.55 731.43 239.12 727.19 246.65 C 726.62 247.66 726.12 248.71 725.58 249.75 Z" fill="#ffffff" fill-rule="nonzero" group-id="1" node-id="68" stroke="none" target-height="143.43999" target-width="127.75" target-x="678.41" target-y="149.17"/><path d="M 700.67 375.10 C 691.21 369.22 682.13 363.58 672.36 357.50 C 675.18 351.04 678.51 343.54 681.74 336.00 C 687.56 322.41 693.44 308.85 698.99 295.15 C 699.88 292.96 699.81 289.95 699.13 287.64 C 696.76 279.59 697.37 271.74 700.56 264.24 C 701.54 261.93 704.59 260.49 706.69 258.65 C 707.08 258.97 707.47 259.29 707.85 259.60 C 707.24 263.66 706.38 267.70 706.14 271.77 C 706.04 273.49 707.26 275.28 707.88 277.04 C 708.94 275.49 710.57 274.06 710.96 272.36 C 712.10 267.35 712.69 262.22 713.61 257.15 C 714.14 254.25 715.18 250.94 718.83 251.98 C 722.46 253.01 723.32 256.22 722.42 260.02 C 721.40 264.37 720.58 268.82 720.22 273.27 C 720.10 274.78 721.63 276.43 722.40 278.02 C 723.34 276.62 724.74 275.34 725.14 273.80 C 726.88 267.10 728.24 260.30 729.95 253.60 C 730.47 251.55 731.59 249.62 732.63 247.75 C 734.70 244.01 737.84 242.05 742.15 243.17 C 746.32 244.25 749.06 247.45 748.82 251.50 C 748.32 259.90 748.75 269.00 745.62 276.48 C 733.01 306.68 719.22 336.39 705.76 366.24 C 704.22 369.66 702.01 372.79 700.67 375.10 Z" fill="#ffffff" fill-rule="nonzero" group-id="1" node-id="70" stroke="none" target-height="133.05" target-width="76.70001" target-x="672.36" target-y="242.05"/><path d="M 193.09 653.17 C 196.52 650.27 199.83 647.73 202.76 644.82 C 203.63 643.95 203.45 642.01 203.74 640.56 C 202.29 640.78 200.55 640.57 199.46 641.31 C 196.44 643.35 193.94 646.33 190.73 647.88 C 188.59 648.91 184.83 649.18 183.12 647.95 C 180.12 645.80 182.90 643.16 184.55 641.24 C 188.33 636.86 192.32 632.66 196.58 627.99 C 190.36 622.86 188.93 632.69 183.60 632.58 C 185.07 629.57 186.05 626.56 187.82 624.13 C 204.33 601.42 220.97 578.80 238.16 555.37 C 243.11 568.61 252.90 576.31 265.17 581.59 C 260.36 588.56 255.22 595.08 251.15 602.21 C 248.62 606.64 247.36 611.90 246.12 616.94 C 244.14 624.99 242.95 633.25 240.81 641.25 C 240.15 643.70 237.48 645.62 235.72 647.77 C 233.56 645.26 231.30 642.83 229.30 640.20 C 228.81 639.55 229.43 638.14 229.06 637.29 C 228.59 636.19 227.83 634.87 226.84 634.45 C 226.18 634.17 224.60 635.04 224.00 635.82 C 221.26 639.38 218.86 643.20 216.09 646.73 C 212.26 651.62 208.06 656.13 201.62 657.58 C 197.57 658.49 195.54 657.50 193.09 653.16 Z" fill="#ffffff" fill-rule="nonzero" group-id="1" node-id="72" stroke="none" target-height="103.119995" target-width="85.05002" target-x="180.12" target-y="555.37"/><path d="M 462.40 569.29 C 461.50 576.54 460.90 583.62 459.69 590.58 C 457.66 602.24 455.40 613.86 452.95 625.43 C 449.01 644.03 441.51 661.41 433.24 678.35 C 425.76 693.66 417.89 708.93 408.52 723.12 C 396.09 741.94 382.07 759.72 368.65 777.89 C 352.12 800.27 330.16 817.29 310.35 836.41 C 300.25 846.16 289.14 854.86 278.38 863.91 C 276.41 865.56 274.34 868.42 270.80 865.31 C 276.70 860.20 282.81 855.44 288.33 850.06 C 309.39 829.55 331.54 809.97 350.83 787.89 C 369.75 766.22 386.28 742.35 402.69 718.63 C 411.15 706.40 416.63 692.14 424.25 679.27 C 434.30 662.29 441.04 643.97 446.20 625.19 C 449.98 611.46 451.39 597.08 453.83 582.98 C 454.35 579.94 454.93 576.88 455.12 573.81 C 455.41 569.19 458.07 568.63 462.40 569.30 Z" fill="#ffffff" fill-rule="nonzero" group-id="1" node-id="74" stroke="none" target-height="299.78998" target-width="191.6" target-x="270.8" target-y="568.63"/><path d="M 650.51 862.22 C 620.07 781.84 589.64 701.45 559.48 621.80 C 552.75 599.31 546.22 577.47 539.52 555.09 C 541.66 554.53 543.33 554.09 545.20 553.60 C 548.96 566.10 552.18 578.40 556.35 590.37 C 568.01 623.87 579.70 657.36 592.03 690.62 C 612.52 745.87 633.54 800.93 654.19 856.13 C 654.82 857.82 653.80 860.14 653.55 862.16 C 652.54 862.18 651.52 862.20 650.51 862.22 Z" fill="#ffffff" fill-rule="nonzero" group-id="1" node-id="76" stroke="none" target-height="308.62" target-width="115.29999" target-x="539.52" target-y="553.6"/><path d="M 447.58 731.21 C 451.62 725.71 455.23 719.82 459.77 714.78 C 475.45 697.35 491.41 680.16 507.36 662.98 C 519.34 650.08 531.47 637.32 543.53 624.50 C 547.38 626.77 546.10 628.96 543.89 631.36 C 525.80 650.89 507.86 670.55 489.65 689.96 C 476.72 703.75 463.44 717.21 450.31 730.81 C 449.87 731.27 449.34 731.64 448.86 732.06 C 448.44 731.78 448.01 731.50 447.59 731.22 Z" fill="#ffffff" fill-rule="nonzero" group-id="1" node-id="78" stroke="none" target-height="107.56" target-width="99.80002" target-x="447.58" target-y="624.5"/><path d="M 422.57 226.02 C 429.23 210.54 440.55 201.15 457.82 199.42 C 467.60 198.44 481.20 204.66 486.13 212.91 C 484.98 212.79 483.81 213.03 483.38 212.58 C 478.45 207.37 472.10 206.87 465.56 207.15 C 464.58 207.19 463.60 208.31 462.70 209.03 C 461.65 209.87 460.65 211.55 459.69 211.50 C 458.71 211.45 457.81 209.75 456.74 208.62 C 456.15 208.78 454.43 208.95 454.39 209.32 C 453.97 212.83 452.09 211.53 449.86 211.40 C 448.01 211.29 445.93 212.85 444.17 213.99 C 438.73 217.49 433.41 221.18 428.01 224.74 C 426.56 225.69 424.97 226.42 423.44 227.25 C 423.16 226.84 422.87 226.43 422.59 226.02 Z" fill="#ffffff" fill-rule="nonzero" group-id="1" node-id="80" stroke="none" target-height="28.809982" target-width="63.559967" target-x="422.57004" target-y="198.44"/><path d="M 634.48 867.11 C 647.09 870.16 657.32 867.70 665.85 857.48 C 667.09 863.41 668.35 868.33 669.00 873.33 C 669.17 874.65 667.82 876.77 666.56 877.56 C 658.54 882.60 649.68 884.11 640.37 882.80 C 639.31 882.65 637.77 881.63 637.52 880.72 C 636.35 876.48 635.56 872.13 634.49 867.12 Z" fill="#ffffff" fill-rule="nonzero" group-id="1" node-id="82" stroke="none" target-height="26.630005" target-width="34.690002" target-x="634.48" target-y="857.48"/><path d="M 559.56 254.05 C 554.24 234.80 537.70 230.14 521.68 225.15 C 516.11 223.42 510.10 223.11 504.74 222.23 C 523.40 211.24 558.26 227.25 559.57 254.05 Z" fill="#ffffff" fill-rule="nonzero" group-id="1" node-id="84" stroke="none" target-height="42.810013" target-width="54.830017" target-x="504.74" target-y="211.23999"/><path d="M 277.63 883.97 C 266.68 881.55 257.03 877.41 250.14 868.26 C 252.08 865.73 253.97 863.27 256.25 860.31 C 258.39 862.21 260.31 864.19 262.50 865.78 C 266.51 868.69 270.55 871.60 274.83 874.09 C 280.76 877.54 280.86 877.37 277.63 883.97 Z" fill="#ffffff" fill-rule="nonzero" group-id="1" node-id="86" stroke="none" target-height="23.659973" target-width="30.719986" target-x="250.14" target-y="860.31"/><path d="M 501.25 394.97 C 501.59 400.65 502.07 406.08 502.10 411.51 C 502.10 412.59 500.50 414.44 499.41 414.63 C 490.32 416.21 481.18 417.48 472.57 418.76 C 477.44 415.64 483.04 412.72 487.81 408.80 C 492.57 404.87 496.50 399.93 501.25 394.97 Z" fill="#ffffff" fill-rule="nonzero" group-id="1" node-id="88" stroke="none" target-height="23.790009" target-width="29.529999" target-x="472.57" target-y="394.97"/><path d="M 387.48 403.03 C 394.83 403.03 402.50 403.05 410.17 403.00 C 410.97 403.00 411.77 402.60 412.55 402.34 C 419.86 399.92 420.22 399.32 418.95 391.76 C 418.76 390.65 418.52 389.54 418.19 387.86 C 422.04 389.93 425.42 391.75 429.20 393.79 C 421.19 403.65 411.68 410.14 398.66 410.01 C 393.36 409.96 389.51 407.24 387.48 403.03 Z" fill="#ffffff" fill-rule="nonzero" group-id="1" node-id="90" stroke="none" target-height="22.28003" target-width="41.72" target-x="387.48" target-y="387.86"/><path d="M 338.93 373.72 C 345.54 387.88 366.92 392.17 373.57 388.10 C 372.57 393.28 382.18 388.88 379.74 395.49 C 359.53 399.35 341.94 390.49 338.93 373.72 Z" fill="#ffffff" fill-rule="nonzero" group-id="1" node-id="92" stroke="none" target-height="25.630035" target-width="43.25" target-x="338.93" target-y="373.71997"/><path d="M 438.36 275.29 C 451.01 276.92 461.09 273.62 470.40 266.95 C 469.06 273.14 466.75 278.04 460.50 280.22 C 452.62 282.97 445.98 280.72 438.36 275.29 Z" fill="#ffffff" fill-rule="nonzero" group-id="1" node-id="94" stroke="none" target-height="16.019989" target-width="32.04001" target-x="438.36" target-y="266.95"/><path d="M 308.32 328.58 C 311.47 340.50 316.09 350.74 325.19 358.62 C 310.65 356.34 304.64 343.55 308.32 328.58 Z" fill="#ffffff" fill-rule="nonzero" group-id="1" node-id="96" stroke="none" target-height="30.040009" target-width="20.549988" target-x="304.64" target-y="328.58"/><path d="M 343.67 273.26 C 337.12 262.07 338.44 254.74 345.69 253.01 C 346.11 257.20 346.94 261.46 346.80 265.70 C 346.72 267.99 344.99 270.23 343.67 273.26 Z" fill="#ffffff" fill-rule="nonzero" group-id="1" node-id="98" stroke="none" target-height="20.250015" target-width="9.820007" target-x="337.12" target-y="253.01"/><path d="M 361.05 316.30 C 359.40 318.75 358.01 321.43 356.04 323.58 C 353.86 325.95 351.13 327.82 348.47 330.06 C 348.26 329.61 348.01 329.07 347.77 328.54 C 346.28 329.35 344.61 330.26 342.94 331.17 C 342.62 330.68 342.30 330.20 341.98 329.71 C 345.78 322.40 353.62 319.94 359.86 315.56 C 360.26 315.81 360.65 316.05 361.05 316.30 Z" fill="#ffffff" fill-rule="nonzero" group-id="1" node-id="100" stroke="none" target-height="15.610016" target-width="19.069977" target-x="341.98" target-y="315.56"/><path d="M 365.49 237.29 C 369.52 233.08 374.73 234.24 379.22 235.25 C 385.59 236.68 391.65 239.45 398.69 241.94 C 396.90 243.42 395.87 244.27 394.89 245.08 C 385.97 238.32 375.98 236.55 365.35 237.21 L 365.49 237.29 Z" fill="#ffffff" fill-rule="nonzero" group-id="1" node-id="102" stroke="none" target-height="12.000015" target-width="33.339996" target-x="365.35" target-y="233.07999"/><path d="M 412.01 293.91 C 419.59 298.06 421.98 306.96 417.89 316.92 C 415.91 309.15 413.99 301.64 412.01 293.91 Z" fill="#ffffff" fill-rule="nonzero" group-id="1" node-id="104" stroke="none" target-height="23.01001" target-width="9.970001" target-x="412.01" target-y="293.91"/><path d="M 578.53 295.56 C 584.73 301.20 585.79 308.52 581.40 316.46 C 580.44 309.46 579.47 302.39 578.53 295.56 Z" fill="#ffffff" fill-rule="nonzero" group-id="1" node-id="106" stroke="none" target-height="20.899994" target-width="7.2599487" target-x="578.53" target-y="295.56"/><path d="M 365.35 237.21 C 365.24 238.00 365.13 238.78 364.91 240.31 C 363.18 242.14 360.74 244.73 358.30 247.32 C 357.98 247.05 357.65 246.78 357.33 246.51 C 359.22 242.81 360.55 238.69 365.48 237.28 C 365.50 237.28 365.36 237.21 365.36 237.21 Z" fill="#ffffff" fill-rule="nonzero" group-id="1" node-id="108" stroke="none" target-height="10.110001" target-width="8.169983" target-x="357.33002" target-y="237.21"/><path d="M 491.39 346.06 C 482.69 345.19 475.36 342.48 469.35 336.68 C 467.35 334.76 465.64 332.38 464.40 329.91 C 463.87 328.85 464.85 327.02 465.14 325.54 C 466.36 326.05 467.72 326.38 468.77 327.14 C 469.67 327.79 470.34 328.86 470.92 329.86 C 478.45 343.06 498.96 341.75 508.66 334.42 C 513.45 330.80 514.97 325.33 516.00 319.64 C 516.26 318.22 517.81 317.03 518.76 315.73 C 519.57 317.14 521.14 318.59 521.08 319.96 C 520.66 328.97 516.53 336.34 508.70 340.53 C 503.45 343.34 497.19 344.27 491.39 346.05 Z" fill="#000000" fill-rule="nonzero" group-id="1" node-id="110" stroke="none" target-height="30.329956" target-width="57.27002" target-x="463.87" target-y="315.73"/><path d="M 497.70 314.44 C 488.70 310.88 483.00 304.05 479.52 295.16 C 479.16 294.24 478.68 293.17 478.87 292.29 C 479.11 291.16 479.97 290.15 480.56 289.09 C 481.55 289.74 482.93 290.18 483.46 291.10 C 484.77 293.39 485.50 296.01 486.80 298.30 C 490.11 304.11 494.76 308.32 501.20 310.70 C 503.06 311.39 504.27 313.86 505.78 315.51 C 502.80 316.97 499.83 318.49 496.79 319.82 C 496.55 319.93 495.19 318.53 495.31 318.24 C 495.83 317.01 496.72 315.93 497.71 314.43 Z" fill="#000000" fill-rule="nonzero" group-id="1" node-id="112" stroke="none" target-height="30.839996" target-width="27.100037" target-x="478.68" target-y="289.09"/><path d="M 502.13 294.50 C 505.41 291.96 507.30 289.31 509.40 289.13 C 513.34 288.80 514.55 292.27 514.42 295.64 C 514.30 298.74 512.53 301.65 509.20 300.74 C 506.91 300.12 505.21 297.34 502.13 294.50 Z" fill="#000000" fill-rule="nonzero" group-id="1" node-id="114" stroke="none" target-height="12.850006" target-width="12.419983" target-x="502.13" target-y="288.8"/><path d="M 468.99 306.97 C 467.92 311.41 466.93 314.15 463.02 314.10 C 459.57 314.05 457.96 311.87 458.00 308.59 C 458.04 305.36 459.19 302.02 462.78 302.37 C 464.98 302.58 466.93 305.36 468.99 306.98 Z" fill="#000000" fill-rule="nonzero" group-id="1" node-id="116" stroke="none" target-height="12.130005" target-width="11.029999" target-x="457.96" target-y="302.02"/><path d="M 375.19 337.75 C 377.08 337.09 379.00 335.69 380.05 336.17 C 384.16 338.08 388.10 340.41 391.82 343.01 C 392.57 343.53 392.05 345.87 392.11 347.37 C 390.84 347.04 389.40 346.98 388.33 346.32 C 384.35 343.87 380.48 341.23 375.19 337.75 Z" fill="#000000" fill-rule="nonzero" group-id="1" node-id="118" stroke="none" target-height="11.679993" target-width="17.380005" target-x="375.19" target-y="335.69"/><path d="M 445.26 300.78 C 442.95 297.69 444.03 295.42 449.26 291.75 C 455.36 287.47 461.05 286.95 463.52 290.74 C 460.01 291.70 456.28 292.07 453.24 293.72 C 450.29 295.32 448.05 298.23 445.26 300.79 Z" fill="#000000" fill-rule="nonzero" group-id="1" node-id="120" stroke="none" target-height="13.839996" target-width="20.569977" target-x="442.95" target-y="286.95"/><path d="M 508.81 278.91 C 503.80 280.61 499.06 282.30 494.26 283.79 C 493.52 284.02 492.36 283.59 491.71 283.07 C 491.37 282.80 491.48 281.51 491.82 280.94 C 493.44 278.26 505.50 275.52 508.01 277.27 C 508.55 277.65 508.67 278.61 508.80 278.91 Z" fill="#000000" fill-rule="nonzero" group-id="1" node-id="122" stroke="none" target-height="8.5" target-width="17.440002" target-x="491.37" target-y="275.52"/></g></svg>
