<?xml version="1.0" encoding="UTF-8"?>
<svg xmlns="http://www.w3.org/2000/svg" xmlns:xlink="http://www.w3.org/1999/xlink" height="1024" node-id="1" sillyvg="true" template-height="1024" template-width="1024" version="1.1" viewBox="0 0 1024 1024" width="1024"><defs node-id="56"/><g node-id="157"><path d="M 674.74 578.76 C 678.15 590.06 681.56 601.03 684.75 612.06 C 688.09 623.61 690.83 635.35 694.70 646.71 C 695.91 650.26 699.97 652.81 702.64 655.90 C 706.81 660.74 711.24 665.42 714.85 670.66 C 716.12 672.51 716.43 676.84 715.19 678.14 C 713.64 679.76 710.04 679.41 707.65 679.86 C 707.29 682.43 707.55 686.31 705.96 689.15 C 705.29 690.34 700.71 689.35 698.21 689.35 C 697.64 691.21 696.90 696.02 696.05 696.04 C 692.10 696.13 688.13 694.89 684.87 694.26 C 684.38 696.07 683.61 698.89 682.85 701.70 C 679.64 700.78 675.95 700.57 673.31 698.80 C 665.63 693.67 660.88 686.04 657.01 677.77 C 645.32 652.79 633.47 627.88 621.82 602.88 C 620.30 599.61 618.36 599.42 616.30 600.34 C 617.31 612.69 618.10 624.79 619.35 636.85 C 620.42 647.16 622.15 657.40 623.34 667.70 C 624.41 676.93 625.03 686.22 626.06 695.46 C 627.40 707.41 629.15 719.32 630.38 731.28 C 631.53 742.39 632.01 753.56 633.21 764.66 C 634.21 773.92 635.87 783.11 637.17 792.34 C 637.84 797.08 638.41 801.83 638.96 806.59 C 640.15 816.89 641.34 827.19 642.47 837.49 C 643.77 849.32 644.81 861.17 646.33 872.97 C 647.32 880.65 648.71 888.30 650.41 895.85 C 651.64 901.30 651.09 902.60 645.52 903.29 C 643.07 903.59 640.62 903.95 638.18 904.32 C 637.54 904.42 636.93 904.65 636.18 904.86 C 637.65 916.15 639.08 927.30 640.57 938.44 C 641.24 943.49 642.20 948.51 642.62 953.57 C 642.73 954.86 641.61 956.63 640.53 957.56 C 638.81 959.03 636.63 959.97 635.15 960.84 C 662.79 961.62 690.82 962.41 718.84 963.19 C 718.95 963.95 719.05 964.71 719.16 965.47 C 717.75 965.95 716.36 966.78 714.94 966.85 C 698.48 967.60 682.02 968.30 665.56 968.88 C 624.95 970.31 584.34 972.10 543.72 972.94 C 501.12 973.82 458.50 973.76 415.88 974.11 C 389.56 974.33 363.24 974.99 336.93 974.63 C 310.62 974.27 284.33 972.99 258.04 971.90 C 250.40 971.59 242.79 970.61 235.18 969.83 C 234.16 969.73 233.20 969.02 232.34 967.48 L 335.43 965.10 C 335.20 964.65 334.97 964.20 334.75 963.74 C 337.04 961.98 339.11 959.73 341.67 958.53 C 359.28 950.24 376.96 942.11 394.70 934.09 C 397.84 932.67 399.52 930.96 400.25 927.35 C 401.52 921.10 403.73 915.04 405.76 908.14 C 401.11 907.92 397.37 907.74 392.74 907.52 C 393.57 902.58 394.26 897.43 395.30 892.35 C 407.19 834.19 418.54 775.91 431.24 717.92 C 442.69 665.63 455.86 613.73 467.82 561.55 C 474.36 533.00 486.70 506.38 494.48 478.27 C 495.89 473.17 497.70 468.19 499.71 461.97 C 481.45 468.32 464.17 474.24 446.96 480.37 C 441.72 482.24 440.59 481.75 440.34 476.04 C 440.20 472.88 440.22 469.71 440.20 466.54 C 440.18 463.39 440.20 460.24 440.20 456.52 C 437.76 456.34 435.66 456.07 433.56 456.06 C 422.89 455.98 412.21 455.60 401.57 456.09 C 396.24 456.33 392.87 454.26 389.60 450.59 C 374.51 433.68 359.61 416.60 344.06 400.12 C 329.56 384.74 314.33 370.05 299.43 355.05 C 296.03 351.62 293.77 348.59 294.50 342.61 C 295.14 337.37 295.42 333.92 300.34 331.03 C 302.89 329.53 303.44 324.43 305.99 323.18 C 310.70 320.86 316.21 320.18 321.95 318.66 C 310.21 278.85 298.18 238.07 285.95 196.61 L 266.09 196.61 C 270.66 190.25 274.48 184.92 278.05 179.95 C 259.34 161.47 240.98 143.35 222.64 125.22 C 216.23 118.89 216.21 118.84 221.41 111.51 C 241.17 83.67 260.96 55.85 280.75 28.03 C 281.51 26.97 282.36 25.98 283.53 24.50 C 284.80 25.97 285.97 27.09 286.87 28.39 C 305.18 54.99 323.41 81.65 341.82 108.19 C 344.10 111.48 344.03 113.25 341.23 116.45 C 326.41 133.34 311.94 150.55 297.50 167.77 C 294.39 171.48 291.88 175.71 289.10 179.70 C 288.08 179.15 287.06 178.61 286.04 178.06 C 289.22 181.28 292.47 184.44 295.55 187.75 C 296.83 189.12 297.77 190.80 298.87 192.34 C 297.20 193.27 295.58 194.30 293.86 195.11 C 292.68 195.67 291.37 195.93 289.49 196.53 C 291.39 203.24 293.22 209.86 295.15 216.45 C 304.08 246.82 313.04 277.18 322.02 307.54 C 322.58 309.44 323.61 311.23 324.01 313.15 C 325.06 318.19 326.71 322.00 333.01 322.41 C 335.08 322.55 337.21 325.74 338.79 327.92 C 339.78 329.30 339.83 331.38 340.25 333.16 C 342.65 343.49 348.30 350.79 357.76 356.35 C 368.99 362.94 379.01 371.56 389.73 379.04 C 400.41 386.49 410.97 394.21 422.28 400.59 C 426.97 403.24 433.45 402.72 439.43 403.69 L 439.43 394.13 C 480.58 397.38 521.40 400.60 562.88 403.88 C 561.60 399.65 560.96 395.27 558.92 391.69 C 557.82 389.77 554.43 388.94 551.91 388.07 C 542.96 385.00 533.78 382.53 524.99 379.07 C 511.97 373.95 505.53 363.86 507.21 349.99 C 508.30 341.03 511.34 332.30 513.64 323.51 C 514.18 321.46 515.31 319.56 516.22 317.47 C 500.85 312.61 493.11 301.70 491.39 286.37 C 490.78 280.98 491.09 275.33 495.65 270.37 C 495.65 278.17 494.70 285.18 495.91 291.79 C 497.14 298.50 499.55 305.56 508.64 308.51 C 507.65 307.01 507.42 306.41 506.98 306.06 C 498.73 299.33 497.09 293.06 501.36 284.38 C 506.08 274.78 514.57 270.63 524.13 272.41 C 529.81 273.47 535.69 273.41 541.48 273.83 C 542.93 273.94 544.38 273.97 546.89 274.09 C 545.59 276.23 544.80 277.74 543.82 279.10 C 532.51 294.80 522.00 311.03 515.55 329.36 C 512.95 336.77 511.66 344.82 511.01 352.68 C 510.23 362.11 514.58 369.68 523.27 373.76 C 543.54 383.28 564.64 389.54 587.38 386.94 C 596.42 385.91 604.67 382.23 612.15 376.99 C 613.51 376.04 614.85 375.03 616.12 373.96 C 621.27 369.64 625.91 366.72 633.61 370.07 C 642.19 373.81 652.99 368.69 657.88 360.85 C 662.92 352.78 662.42 342.75 656.62 335.67 C 649.49 326.95 638.80 326.49 631.00 334.56 C 629.05 336.58 622.27 336.33 619.47 334.14 C 611.01 327.51 608.46 316.46 613.51 306.36 C 615.42 302.54 618.43 299.28 620.68 295.60 C 621.96 293.51 622.74 291.12 623.74 288.86 C 623.28 288.55 622.82 288.24 622.36 287.93 C 621.45 288.67 620.64 289.71 619.60 290.08 C 617.25 290.92 614.21 292.64 612.49 291.82 C 609.19 290.24 606.70 290.68 603.69 292.01 C 592.39 296.99 580.72 296.69 568.97 293.92 C 567.14 293.49 565.45 292.50 563.77 291.50 C 579.21 294.23 594.07 293.86 607.70 285.18 C 595.32 290.47 582.47 291.82 569.04 290.25 C 560.97 289.31 555.53 285.38 551.62 278.31 C 553.99 278.93 556.20 279.51 559.04 280.25 C 558.49 278.88 558.42 278.38 558.25 278.34 C 551.18 276.71 549.63 271.64 549.85 265.28 C 549.88 264.32 549.05 263.27 548.43 262.39 C 548.32 262.23 546.81 262.65 546.75 262.96 C 546.56 263.97 546.61 265.08 546.81 266.10 C 547.18 268.00 547.72 269.88 547.70 272.00 C 539.89 266.17 534.68 258.59 532.42 249.19 C 531.59 245.73 531.10 241.92 531.62 238.44 C 534.16 221.43 548.36 213.59 565.55 219.51 C 576.10 223.14 584.71 229.42 590.76 238.90 C 592.70 241.93 594.30 245.18 595.91 248.06 C 594.01 249.16 592.27 250.16 589.93 251.51 C 593.31 251.68 595.62 252.22 597.71 251.75 C 598.96 251.47 600.14 249.79 600.88 248.47 C 606.62 238.26 614.85 232.10 626.77 230.31 C 638.33 228.57 646.83 233.37 654.36 241.04 C 660.23 247.02 663.71 254.30 665.00 262.63 C 665.43 265.40 666.00 268.21 666.95 270.84 C 669.92 279.02 672.72 280.68 681.29 279.41 C 690.68 278.01 699.83 277.93 708.45 282.83 C 714.00 285.99 717.01 290.46 717.02 296.95 C 717.04 309.00 713.24 319.46 704.40 327.85 C 702.96 329.22 701.28 330.33 698.94 332.17 C 701.59 333.87 703.06 335.09 704.75 335.85 C 717.24 341.51 723.55 352.47 721.99 365.97 C 721.37 371.32 718.22 374.75 712.24 375.80 C 708.83 376.40 705.29 376.33 701.81 376.50 C 697.82 376.69 693.80 376.55 689.86 377.04 C 684.06 377.76 680.72 381.78 680.83 387.60 C 680.90 391.25 681.40 394.90 681.51 398.55 C 681.64 402.76 681.54 406.98 681.95 411.59 C 682.65 408.97 683.85 406.37 683.93 403.74 C 684.09 398.62 683.63 393.49 683.41 388.36 C 683.16 382.30 685.67 379.43 691.74 379.09 C 698.22 378.72 704.74 378.76 711.19 378.10 C 720.53 377.14 724.75 371.67 724.61 362.17 C 724.44 350.93 719.65 342.42 710.31 336.32 C 708.13 334.90 706.02 333.39 704.05 330.74 C 705.38 330.74 707.12 330.19 707.99 330.82 C 719.03 338.80 728.28 348.63 730.79 362.29 C 733.93 379.32 720.45 387.23 704.16 385.46 C 700.88 385.10 697.69 383.97 693.74 383.03 C 693.15 388.67 692.63 394.19 691.99 399.70 C 689.71 419.16 678.73 424.23 661.79 423.42 C 650.09 422.86 644.08 419.09 635.85 409.01 C 620.80 422.58 598.49 417.59 595.47 403.15 C 592.19 408.65 592.59 411.12 598.56 414.68 C 610.53 421.82 621.92 429.79 629.72 441.47 C 637.72 453.46 645.81 465.62 651.88 478.62 C 665.29 507.31 677.44 536.60 690.18 565.61 C 691.73 569.14 690.87 571.15 687.41 572.66 C 682.70 574.72 678.13 577.08 674.74 578.71 Z M 621.70 594.99 C 625.82 593.50 629.95 592.02 635.13 590.15 C 633.29 586.71 631.86 581.21 629.92 581.03 C 626.38 580.69 622.53 583.49 619.15 584.84 C 620.17 588.91 620.93 591.96 621.70 595.00 C 619.04 591.15 616.39 587.29 613.73 583.44 C 613.27 583.74 612.81 584.03 612.35 584.33 C 613.11 588.26 613.88 592.19 614.66 596.21 C 617.32 595.75 619.51 595.37 621.70 594.99 Z M 616.76 584.18 C 620.04 582.48 622.62 580.77 625.44 579.76 C 634.84 576.39 644.30 573.18 653.79 570.08 C 659.76 568.13 665.84 566.50 671.83 564.62 C 672.80 564.32 673.75 563.56 674.42 562.77 C 676.42 560.38 678.28 557.87 680.19 555.41 C 680.88 554.61 680.58 553.13 680.00 551.78 C 670.34 529.56 661.03 507.17 650.85 485.19 C 642.38 466.91 632.67 449.26 618.72 434.32 C 616.07 431.48 613.98 430.61 610.23 432.51 C 593.60 440.92 576.76 441.76 559.34 434.25 C 550.57 430.47 546.07 424.19 544.12 415.38 C 543.73 413.60 543.19 411.79 543.18 409.98 C 543.15 406.68 541.47 405.91 538.48 405.73 C 528.35 405.10 518.23 404.19 508.11 403.41 C 491.54 402.13 474.96 400.87 457.77 399.56 C 457.77 402.30 458.41 404.92 457.66 407.05 C 454.68 415.41 456.21 423.92 456.28 432.37 C 456.32 436.64 457.29 440.91 457.38 445.18 C 457.56 453.87 457.43 462.57 457.43 471.78 C 470.86 467.14 484.64 462.35 498.44 457.65 C 499.91 457.15 501.54 457.13 503.10 456.89 C 503.15 458.57 503.65 460.39 503.18 461.91 C 498.24 477.94 493.27 493.96 488.04 509.89 C 483.67 523.21 478.96 536.42 474.25 550.12 C 520.64 557.78 566.81 565.41 613.46 573.12 C 612.34 557.33 610.39 542.72 610.55 528.03 C 611.40 527.97 612.25 527.90 613.10 527.84 C 615.27 543.65 615.50 559.66 617.32 575.70 C 614.96 576.12 613.22 576.43 611.49 576.73 L 611.49 582.39 C 613.47 583.06 615.44 583.73 616.75 584.17 Z M 528.17 679.30 L 526.85 679.53 C 526.59 680.28 526.29 681.02 526.08 681.79 C 521.00 699.94 515.98 718.10 510.83 736.23 C 508.70 743.72 506.19 751.10 504.06 758.59 C 499.80 773.53 495.92 788.58 491.43 803.45 C 486.23 820.68 480.47 837.73 475.11 854.91 C 469.55 872.73 464.25 890.64 458.70 908.47 C 455.90 917.47 455.42 917.77 446.17 915.91 C 442.86 915.25 441.22 916.20 440.25 919.21 C 435.91 932.74 431.52 946.25 426.95 960.36 C 433.22 959.95 438.84 959.32 444.46 959.26 C 474.55 958.96 504.65 958.89 534.74 958.56 C 542.69 958.47 550.32 958.83 557.74 953.27 C 569.14 944.73 582.01 938.19 594.05 930.47 C 604.48 923.78 604.20 923.63 600.07 911.57 C 598.81 907.89 597.28 906.81 593.31 907.50 C 585.21 908.92 584.94 908.69 582.92 900.54 C 577.99 880.56 573.37 860.50 568.46 840.51 C 557.56 796.18 546.57 751.87 535.56 707.57 C 533.21 698.11 530.64 688.71 528.17 679.29 Z M 300.55 342.30 C 295.96 345.30 297.87 348.20 300.50 350.90 C 302.00 352.44 303.87 353.61 305.44 355.09 C 317.58 366.55 329.96 377.78 341.72 389.62 C 350.34 398.30 358.11 407.83 366.34 416.90 C 376.35 427.93 386.41 438.92 396.54 449.83 C 397.45 450.82 399.06 451.72 400.34 451.72 C 409.97 451.72 419.60 451.46 429.23 451.32 C 432.80 451.27 436.38 451.32 439.85 451.32 L 439.85 407.87 C 429.95 407.80 420.73 406.86 412.54 400.96 C 390.00 384.71 367.21 368.80 344.63 352.59 C 342.92 351.36 341.70 349.02 340.97 346.95 C 339.04 341.48 337.69 335.80 335.77 330.33 C 333.98 325.24 326.02 323.91 321.94 327.99 C 323.39 328.90 324.81 329.79 326.51 330.85 C 325.06 331.76 324.09 332.37 323.85 332.51 C 325.94 335.02 329.52 337.44 329.35 339.56 C 329.06 343.23 326.05 346.05 322.86 344.87 C 320.53 347.25 319.08 350.01 317.02 350.58 C 313.00 351.68 309.08 350.43 306.41 346.64 C 309.22 346.70 311.84 347.58 314.52 347.78 C 315.64 347.87 316.87 346.52 318.05 345.83 C 317.25 344.98 316.58 343.90 315.62 343.34 C 313.90 342.34 312.00 341.65 310.17 340.83 C 310.34 340.17 310.51 339.50 310.68 338.84 C 315.61 339.61 320.54 340.38 325.47 341.15 C 325.65 340.49 325.83 339.83 326.01 339.18 C 321.35 337.28 316.69 335.39 312.03 333.49 C 312.13 333.08 312.24 332.68 312.34 332.27 C 315.10 332.45 317.86 332.64 319.74 332.77 L 319.74 324.29 C 314.14 323.05 310.22 323.65 306.75 326.72 C 305.99 327.39 304.94 328.87 305.19 329.38 C 306.87 332.74 304.15 333.92 302.25 334.42 C 296.63 335.89 297.09 338.58 300.55 342.30 Z M 694.55 693.22 C 693.75 690.13 693.59 687.92 692.62 686.14 C 690.80 682.79 688.34 679.79 686.52 676.44 C 685.90 675.30 686.39 673.55 686.38 672.08 C 687.49 672.81 688.90 673.32 689.65 674.32 C 693.44 679.36 697.12 684.46 703.72 686.70 C 705.24 680.60 701.52 676.93 698.39 672.89 C 696.80 670.84 695.86 668.30 694.62 665.98 C 696.95 667.33 699.59 668.35 701.55 670.11 C 704.76 672.99 707.68 676.10 712.55 675.99 C 711.19 668.70 708.09 664.27 698.59 658.05 C 693.33 654.61 690.46 650.12 688.88 644.25 C 684.70 628.71 680.34 613.21 675.98 597.72 C 674.39 592.06 672.58 586.46 671.10 581.60 C 654.72 587.79 638.99 593.74 623.81 599.48 C 625.30 601.81 627.33 604.44 628.77 607.35 C 632.62 615.10 636.16 622.99 639.92 630.78 C 645.51 642.37 651.20 653.92 656.79 665.51 C 659.83 671.82 662.33 678.44 665.83 684.47 C 669.23 690.34 674.11 695.08 680.60 698.29 C 682.39 689.36 671.92 684.07 674.76 675.23 C 680.41 681.89 683.83 690.58 694.56 693.22 Z M 591.20 937.38 C 602.45 947.90 628.23 943.74 635.70 930.19 C 636.22 929.24 636.61 927.99 636.48 926.95 C 635.71 920.88 634.81 914.83 633.88 908.78 C 633.45 906.01 632.13 904.50 628.89 904.82 C 619.99 905.70 611.07 906.30 601.58 907.06 C 603.27 912.79 604.98 918.09 606.31 923.48 C 606.58 924.59 605.87 926.52 604.95 927.25 C 600.59 930.71 596.01 933.89 591.20 937.38 Z M 438.44 914.45 C 429.26 912.60 420.53 910.74 411.74 909.19 C 410.67 909.00 408.51 910.25 408.20 911.25 C 406.22 917.73 404.79 924.39 402.76 930.86 C 402.16 932.76 400.50 934.78 398.77 935.78 C 395.10 937.91 391.07 939.40 386.14 941.62 C 401.55 945.83 415.45 944.63 429.17 939.68 C 429.71 939.48 430.29 938.84 430.48 938.27 C 433.12 930.48 435.71 922.66 438.44 914.44 Z M 665.98 964.43 C 538.62 969.10 411.17 969.15 283.72 969.37 C 411.19 973.10 538.61 971.87 665.98 964.43 Z M 572.45 571.77 C 571.13 577.24 571.63 578.78 575.71 582.97 C 577.16 584.46 578.57 586.37 579.07 588.32 C 581.47 597.72 583.60 607.19 585.73 616.66 C 586.24 618.92 586.25 621.29 586.74 623.56 C 592.28 649.39 598.27 675.13 603.28 701.06 C 606.28 716.55 608.13 732.30 609.86 748.00 C 613.19 778.25 615.99 808.55 619.17 838.82 C 621.06 856.81 623.23 874.77 625.33 892.74 C 625.55 894.59 626.09 896.41 626.49 898.25 C 626.93 898.17 627.38 898.10 627.82 898.02 C 627.90 897.32 628.12 896.61 628.04 895.93 C 625.82 876.13 623.53 856.34 621.33 836.55 C 618.48 810.93 615.86 785.28 612.85 759.68 C 610.08 736.06 607.79 712.33 603.70 688.93 C 599.70 666.03 593.65 643.50 588.59 620.79 C 586.23 610.20 584.75 599.35 581.60 589.01 C 579.67 582.67 575.33 577.06 572.44 571.79 Z M 517.62 605.57 C 517.03 605.49 516.44 605.41 515.85 605.34 C 515.54 606.22 515.12 607.08 514.94 607.99 C 512.22 621.34 509.88 634.79 506.73 648.04 C 503.54 661.42 499.38 674.56 495.97 687.90 C 493.05 699.33 491.14 711.04 487.82 722.35 C 476.46 761.09 464.61 799.67 453.10 838.36 C 446.57 860.32 440.31 882.36 433.97 904.37 C 433.57 905.75 433.53 907.22 433.32 908.65 C 433.78 908.73 434.24 908.81 434.70 908.89 C 435.34 907.10 436.13 905.34 436.58 903.50 C 438.81 894.47 440.51 885.27 443.21 876.39 C 456.96 831.10 471.25 785.97 484.76 740.61 C 492.39 715.00 499.25 689.13 505.79 663.21 C 509.56 648.27 512.01 632.99 515.07 617.87 C 515.90 613.76 516.77 609.67 517.62 605.56 Z M 561.73 390.82 C 563.02 394.48 564.48 397.79 565.28 401.25 C 565.76 403.33 566.01 406.16 564.98 407.76 C 561.89 412.55 562.64 415.99 567.99 418.13 C 573.67 420.40 579.10 418.72 584.45 416.98 C 587.67 415.94 591.38 414.97 589.46 409.89 C 589.02 408.72 589.95 407.02 590.31 405.57 C 591.57 400.49 592.85 395.43 594.00 390.83 L 561.73 390.83 Z M 548.48 416.16 C 549.38 422.18 552.47 426.32 557.73 428.93 C 575.68 437.80 593.36 437.03 611.05 427.31 C 608.14 425.24 605.33 423.20 602.49 421.23 C 602.01 420.90 601.36 420.81 600.39 420.46 C 601.38 423.55 602.22 426.19 603.07 428.84 C 596.22 416.31 595.47 415.63 590.34 418.11 C 591.42 421.44 592.51 424.79 593.60 428.14 C 593.21 428.25 592.81 428.36 592.42 428.47 C 591.79 426.64 591.48 424.60 590.44 423.04 C 589.56 421.72 587.85 420.12 586.51 420.12 C 583.79 420.12 582.63 422.08 583.19 424.94 C 583.57 426.84 583.64 428.80 583.85 430.73 C 583.57 430.75 583.30 430.76 583.02 430.78 C 582.50 427.91 581.97 425.05 581.31 421.45 C 578.62 422.53 576.37 423.44 574.51 424.19 C 567.99 422.13 560.20 421.14 558.78 412.01 C 554.94 413.56 551.74 414.84 548.48 416.16 Z M 251.11 131.57 C 250.35 130.32 249.84 129.25 249.13 128.35 C 246.16 124.56 243.46 120.46 240.02 117.14 C 236.45 113.70 236.92 111.15 239.65 107.49 C 254.69 87.39 269.56 67.15 284.35 46.86 C 285.28 45.58 285.14 43.52 285.50 41.82 C 283.71 42.39 281.16 42.40 280.26 43.63 C 263.83 65.79 247.57 88.07 231.40 110.42 C 230.63 111.48 230.26 113.94 230.93 114.77 C 235.90 121.02 241.13 127.06 246.42 133.04 C 246.99 133.68 248.51 133.90 249.44 133.68 C 250.13 133.51 250.57 132.31 251.11 131.58 Z M 423.38 964.15 C 423.48 964.88 423.57 965.61 423.67 966.34 L 554.03 963.54 C 554.05 962.91 554.06 962.29 554.08 961.66 C 552.54 961.49 550.99 961.17 549.45 961.19 C 542.65 961.27 535.86 961.49 529.06 961.59 C 496.50 962.07 463.95 962.51 431.39 963.05 C 428.72 963.09 426.05 963.77 423.38 964.15 Z M 443.11 454.60 C 452.57 455.53 455.87 453.19 453.99 447.69 C 452.68 447.81 451.31 447.94 450.90 447.98 C 452.14 445.76 453.48 443.38 454.81 441.00 C 453.24 440.15 451.67 439.30 449.97 438.37 C 454.76 437.49 454.96 434.41 453.29 430.36 C 451.45 430.59 449.73 430.54 448.22 431.08 C 446.52 431.68 443.91 432.57 443.67 433.74 C 443.31 435.50 444.66 437.62 445.38 439.90 C 442.47 442.15 442.64 445.17 445.76 447.50 C 444.88 449.86 444.10 451.97 443.12 454.60 Z M 454.60 413.19 C 443.88 412.57 442.26 413.83 443.43 420.83 C 444.79 421.27 446.18 421.73 448.92 422.62 C 442.37 422.93 442.41 425.92 443.84 429.74 C 447.70 430.15 451.63 430.59 453.54 426.60 C 454.17 425.29 452.83 423.04 452.47 421.56 C 453.13 418.98 453.80 416.32 454.60 413.20 Z M 644.06 587.40 C 640.80 574.32 638.79 575.71 632.20 579.29 C 633.45 582.93 634.70 586.58 636.05 590.51 C 639.00 589.36 641.42 588.43 644.06 587.40 Z M 652.46 584.43 C 651.09 580.32 649.93 576.85 648.67 573.05 C 646.21 574.25 644.33 575.17 642.19 576.21 C 643.47 579.87 644.64 583.18 645.89 586.75 C 648.22 585.93 650.03 585.29 652.46 584.43 Z M 455.26 404.95 C 451.22 405.35 447.85 405.50 444.56 406.14 C 443.82 406.29 443.02 408.09 442.95 409.18 C 442.89 410.06 443.66 411.45 444.46 411.86 C 448.72 414.06 453.67 411.38 455.26 404.94 Z M 669.70 575.68 C 667.08 572.72 665.51 570.43 663.39 568.93 C 662.90 568.58 659.06 571.48 659.24 571.93 C 660.21 574.46 661.71 576.93 663.60 578.86 C 663.98 579.25 666.83 577.22 669.70 575.68 Z M 653.67 583.76 C 656.36 582.48 658.23 581.59 660.47 580.53 C 659.23 577.83 658.38 575.32 656.95 573.18 C 656.39 572.33 654.41 571.79 653.37 572.10 C 652.59 572.33 651.75 574.19 651.86 575.24 C 652.11 577.81 652.89 580.33 653.67 583.77 Z M 560.42 409.69 C 555.08 405.79 550.67 406.84 545.95 407.11 C 546.74 410.05 547.32 412.22 547.99 414.74 C 551.96 413.13 555.51 411.68 560.41 409.69 Z M 454.63 462.53 C 450.77 463.65 447.36 464.63 444.33 465.51 L 444.33 471.90 C 452.41 470.07 454.65 468.17 454.63 462.53 Z M 456.04 399.20 L 442.48 399.20 C 442.18 399.70 441.88 400.20 441.57 400.69 C 443.01 401.81 444.42 403.83 445.91 403.89 C 449.59 404.05 454.38 405.77 456.04 399.20 Z M 443.83 457.51 C 443.96 459.58 444.06 461.27 444.20 463.61 C 447.83 462.29 450.88 461.45 453.63 460.03 C 454.49 459.58 454.54 457.57 454.96 456.27 C 453.83 455.97 452.63 455.28 451.58 455.46 C 449.16 455.86 446.80 456.69 443.83 457.51 Z M 526.92 676.47 C 527.69 676.66 528.46 676.86 529.24 677.05 C 531.25 668.85 533.26 660.65 535.26 652.45 C 534.53 652.27 533.81 652.10 533.08 651.92 C 531.03 660.10 528.97 668.28 526.92 676.46 Z M 676.50 572.32 C 674.58 565.04 673.51 564.57 667.42 568.32 C 669.56 576.25 670.79 576.79 676.50 572.32 Z M 683.86 569.32 C 683.05 566.64 682.48 564.09 681.48 561.72 C 681.05 560.72 679.71 560.10 678.78 559.31 C 678.09 560.35 676.72 561.46 676.82 562.43 C 677.11 565.40 677.96 568.32 678.71 571.81 C 681.00 570.70 682.29 570.07 683.87 569.31 Z M 454.56 471.41 C 454.29 470.95 454.01 470.50 453.74 470.04 C 450.42 471.79 447.11 473.53 443.79 475.28 C 444.11 475.84 444.44 476.39 444.76 476.95 C 447.61 474.40 452.75 475.71 454.56 471.41 Z" fill="#000000" fill-rule="nonzero" group-id="1" node-id="63" stroke="none" target-height="950.49" target-width="517.72" target-x="216.21" target-y="24.499998"/><path d="M 713.34 283.36 C 703.06 275.14 691.26 276.06 679.48 277.26 C 674.84 277.73 671.52 276.26 670.06 271.87 C 668.50 267.18 667.54 262.29 666.09 257.56 C 661.79 243.51 653.43 232.83 638.89 229.00 C 632.92 227.43 626.18 228.74 621.23 228.74 C 628.59 223.49 644.84 224.59 655.12 232.43 C 666.58 241.17 672.71 252.73 672.78 267.32 C 672.81 274.36 675.03 276.14 682.13 274.70 C 688.94 273.32 695.80 270.65 702.57 274.10 C 706.68 276.20 710.32 279.21 714.18 281.81 L 713.35 283.37 Z" fill="#000000" fill-rule="nonzero" group-id="1" node-id="65" stroke="none" target-height="59.87999" target-width="92.94995" target-x="621.23" target-y="223.49"/><path d="M 532.53 216.06 C 533.33 218.53 532.97 220.42 530.93 222.45 C 522.74 230.64 520.26 243.55 525.08 253.71 C 526.43 256.55 529.11 258.75 531.85 261.02 C 526.14 249.70 523.33 238.57 531.82 227.36 C 525.56 243.59 531.18 257.23 540.49 270.42 C 538.09 268.38 535.75 266.27 533.29 264.31 C 530.70 262.24 527.42 260.74 525.46 258.21 C 519.29 250.24 518.09 240.96 521.99 231.88 C 524.44 226.18 528.95 221.37 532.53 216.16 C 532.53 216.16 532.53 216.06 532.53 216.06 Z" fill="#000000" fill-rule="nonzero" group-id="1" node-id="67" stroke="none" target-height="54.36" target-width="22.399963" target-x="518.09" target-y="216.06001"/><path d="M 618.39 294.31 C 608.31 306.61 604.65 319.38 614.99 333.46 C 609.12 332.49 604.72 327.63 603.33 320.86 C 601.40 311.45 607.28 300.67 618.39 294.31 Z" fill="#000000" fill-rule="nonzero" group-id="1" node-id="69" stroke="none" target-height="39.149994" target-width="16.98999" target-x="601.4" target-y="294.31"/><path d="M 192.96 247.51 C 197.84 246.85 201.42 246.38 205.43 245.84 C 204.95 241.88 204.52 238.37 204.09 234.86 C 204.66 234.71 205.24 234.56 205.81 234.41 C 206.77 237.78 207.74 241.14 208.88 245.13 C 215.00 244.51 221.29 243.87 227.57 243.24 C 227.66 243.99 227.74 244.75 227.83 245.50 C 221.72 246.59 215.60 247.69 209.26 248.82 C 210.05 254.37 210.79 259.55 211.53 264.74 C 210.85 264.83 210.18 264.92 209.50 265.01 C 208.70 261.25 207.51 257.52 207.20 253.72 C 206.86 249.62 205.15 248.60 201.41 249.54 C 199.83 249.94 198.08 249.99 196.46 249.77 C 195.51 249.64 194.68 248.66 192.97 247.52 Z" fill="#000000" fill-rule="nonzero" group-id="1" node-id="71" stroke="none" target-height="30.600006" target-width="34.869995" target-x="192.96" target-y="234.41"/><path d="M 394.91 241.94 L 394.91 249.57 C 394.42 249.67 393.93 249.77 393.44 249.87 C 392.87 247.38 392.29 244.90 391.59 241.86 C 389.29 241.55 386.65 241.19 384.00 240.84 C 383.93 240.38 383.86 239.93 383.79 239.47 C 386.39 238.92 388.99 238.36 391.82 237.76 C 391.39 233.84 390.97 230.01 390.55 226.17 C 391.18 226.02 391.80 225.87 392.43 225.71 C 393.34 229.69 394.24 233.67 395.28 238.21 L 418.52 238.21 C 418.52 238.83 418.54 239.46 418.54 240.08 C 410.91 240.68 403.29 241.28 394.91 241.94 Z" fill="#000000" fill-rule="nonzero" group-id="1" node-id="73" stroke="none" target-height="24.160004" target-width="34.75" target-x="383.79" target-y="225.70999"/><path d="M 537.58 321.11 C 540.32 325.07 542.79 328.62 545.25 332.17 C 544.85 332.56 544.46 332.95 544.06 333.35 C 542.86 332.41 541.42 331.65 540.48 330.49 C 532.44 320.48 532.52 320.09 543.64 314.21 C 548.40 311.70 553.24 309.34 558.04 306.91 C 558.41 307.34 558.78 307.77 559.14 308.20 C 558.15 309.21 557.32 310.53 556.13 311.19 C 550.08 314.54 543.94 317.73 537.57 321.11 Z" fill="#000000" fill-rule="nonzero" group-id="1" node-id="75" stroke="none" target-height="26.440002" target-width="26.700012" target-x="532.44" target-y="306.91"/><path d="M 550.51 215.71 C 565.09 211.66 580.71 218.46 589.44 232.55 C 578.70 221.72 566.54 214.21 550.51 215.71 Z" fill="#000000" fill-rule="nonzero" group-id="1" node-id="77" stroke="none" target-height="20.890015" target-width="38.929993" target-x="550.51" target-y="211.66"/><path d="M 532.53 216.17 C 542.33 208.10 552.52 205.29 559.27 209.25 C 558.11 209.64 557.29 210.20 556.54 210.12 C 549.25 209.39 542.88 211.48 537.30 216.16 C 535.71 217.49 534.09 218.89 532.53 216.09 C 532.53 216.07 532.53 216.17 532.53 216.17 Z" fill="#000000" fill-rule="nonzero" group-id="1" node-id="79" stroke="none" target-height="13.600021" target-width="26.73999" target-x="532.53" target-y="205.28998"/><path d="M 500.12 280.30 C 501.57 270.90 513.03 264.74 520.47 268.70 C 517.16 269.78 512.96 270.50 509.46 272.46 C 505.98 274.42 503.20 277.63 500.12 280.30 Z" fill="#000000" fill-rule="nonzero" group-id="1" node-id="81" stroke="none" target-height="15.559998" target-width="20.349976" target-x="500.12" target-y="264.74"/><path d="M 576.07 302.02 C 580.44 300.47 584.84 300.40 588.91 303.23 C 589.77 303.83 589.80 305.64 590.21 306.90 C 589.08 306.79 587.92 306.78 586.81 306.54 C 584.77 306.09 582.77 305.47 580.74 304.97 C 579.13 304.57 577.51 304.25 575.89 303.90 C 575.95 303.28 576.01 302.65 576.07 302.03 Z" fill="#000000" fill-rule="nonzero" group-id="1" node-id="83" stroke="none" target-height="6.5" target-width="14.320007" target-x="575.89" target-y="300.4"/><path d="M 580.53 337.48 C 571.90 343.42 562.99 349.04 551.58 346.65 C 562.40 347.34 571.16 341.74 580.53 337.48 Z" fill="#000000" fill-rule="nonzero" group-id="1" node-id="85" stroke="none" target-height="11.560028" target-width="28.950012" target-x="551.58" target-y="337.48"/><path d="M 629.44 353.12 C 634.04 347.14 640.00 343.49 647.83 343.32 C 641.70 346.59 635.57 349.85 629.44 353.12 Z" fill="#000000" fill-rule="nonzero" group-id="1" node-id="87" stroke="none" target-height="9.799988" target-width="18.390015" target-x="629.44" target-y="343.32"/><path d="M 538.98 293.97 C 541.16 293.64 543.53 292.64 545.48 293.16 C 547.61 293.73 549.37 295.68 551.19 297.16 C 551.26 297.21 549.95 299.38 549.72 299.30 C 546.22 298.08 542.79 296.65 539.35 295.27 C 539.23 294.83 539.10 294.39 538.98 293.95 Z" fill="#000000" fill-rule="nonzero" group-id="1" node-id="89" stroke="none" target-height="6.73999" target-width="12.280029" target-x="538.98" target-y="292.64"/><path d="M 720.00 299.18 C 721.82 306.97 718.93 312.65 715.49 318.20 C 716.91 312.23 718.32 306.26 720.00 299.18 Z" fill="#000000" fill-rule="nonzero" group-id="1" node-id="91" stroke="none" target-height="19.02002" target-width="6.329956" target-x="715.49" target-y="299.18"/><path d="M 538.85 304.10 C 540.42 306.77 541.89 308.16 541.82 309.48 C 541.77 310.56 539.90 311.56 538.84 312.59 C 537.90 311.45 536.38 310.39 536.20 309.14 C 536.05 308.03 537.39 306.71 538.85 304.11 Z" fill="#000000" fill-rule="nonzero" group-id="1" node-id="93" stroke="none" target-height="8.48999" target-width="5.840027" target-x="536.05" target-y="304.1"/><path d="M 579.03 323.52 C 577.50 321.44 575.80 320.10 576.00 319.17 C 576.30 317.76 577.92 316.62 578.98 315.37 C 579.95 316.52 581.56 317.59 581.72 318.84 C 581.86 319.97 580.40 321.29 579.04 323.53 Z" fill="#000000" fill-rule="nonzero" group-id="1" node-id="95" stroke="none" target-height="8.160004" target-width="6.0599976" target-x="575.8" target-y="315.37"/><path d="M 616.76 584.18 C 615.45 583.74 613.48 583.07 611.50 582.40 L 611.50 576.74 C 613.22 576.44 614.97 576.13 617.33 575.71 C 615.51 559.66 615.28 543.65 613.11 527.85 C 612.26 527.91 611.41 527.98 610.56 528.04 C 610.41 542.73 612.35 557.34 613.47 573.13 C 566.83 565.42 520.65 557.79 474.26 550.13 C 478.97 536.43 483.68 523.22 488.05 509.90 C 493.27 493.96 498.24 477.94 503.19 461.92 C 503.66 460.40 503.16 458.58 503.11 456.90 C 501.55 457.14 499.92 457.15 498.45 457.66 C 484.64 462.36 470.87 467.15 457.44 471.79 C 457.44 462.58 457.57 453.88 457.39 445.19 C 457.30 440.91 456.33 436.65 456.29 432.38 C 456.22 423.93 454.69 415.42 457.67 407.06 C 458.43 404.93 457.78 402.30 457.78 399.57 C 474.97 400.88 491.55 402.14 508.12 403.42 C 518.24 404.20 528.36 405.11 538.49 405.74 C 541.48 405.92 543.16 406.69 543.19 409.99 C 543.20 411.79 543.74 413.60 544.13 415.39 C 546.07 424.19 550.58 430.47 559.35 434.26 C 576.77 441.77 593.61 440.93 610.24 432.52 C 613.98 430.63 616.08 431.50 618.73 434.33 C 632.68 449.26 642.39 466.91 650.86 485.20 C 661.04 507.18 670.35 529.57 680.01 551.79 C 680.60 553.14 680.90 554.62 680.20 555.42 C 678.29 557.88 676.43 560.39 674.43 562.78 C 673.76 563.57 672.81 564.33 671.84 564.63 C 665.85 566.52 659.77 568.14 653.80 570.09 C 644.31 573.20 634.85 576.40 625.45 579.77 C 622.63 580.78 620.06 582.49 616.77 584.19 Z" fill="#ffffff" fill-rule="nonzero" group-id="1" node-id="97" stroke="none" target-height="184.62" target-width="226.21002" target-x="454.69" target-y="399.57"/><path d="M 528.17 679.30 C 530.64 688.73 533.21 698.13 535.56 707.58 C 546.57 751.88 557.56 796.19 568.46 840.52 C 573.38 860.51 577.99 880.57 582.92 900.55 C 584.93 908.70 585.21 908.93 593.31 907.51 C 597.28 906.81 598.81 907.90 600.07 911.58 C 604.20 923.63 604.48 923.79 594.05 930.48 C 582.02 938.20 569.14 944.74 557.74 953.28 C 550.32 958.84 542.70 958.49 534.74 958.57 C 504.65 958.90 474.55 958.97 444.46 959.27 C 438.83 959.33 433.21 959.96 426.95 960.37 C 431.52 946.26 435.90 932.75 440.25 919.22 C 441.22 916.20 442.86 915.25 446.17 915.92 C 455.41 917.77 455.90 917.47 458.70 908.48 C 464.25 890.65 469.55 872.75 475.11 854.92 C 480.47 837.74 486.23 820.69 491.43 803.46 C 495.92 788.59 499.80 773.54 504.06 758.60 C 506.20 751.11 508.71 743.73 510.83 736.24 C 515.98 718.11 521.00 699.94 526.08 681.80 C 526.29 681.03 526.59 680.29 526.85 679.54 L 528.17 679.31 Z" fill="#ffffff" fill-rule="nonzero" group-id="1" node-id="99" stroke="none" target-height="281.07007" target-width="177.52997" target-x="426.95" target-y="679.3"/><path d="M 300.55 342.30 C 297.09 338.58 296.63 335.89 302.25 334.42 C 304.15 333.92 306.88 332.74 305.19 329.38 C 304.93 328.86 305.99 327.39 306.75 326.72 C 310.22 323.65 314.14 323.05 319.74 324.29 L 319.74 332.77 C 317.85 332.64 315.10 332.46 312.34 332.27 C 312.24 332.68 312.13 333.08 312.03 333.49 C 316.69 335.39 321.35 337.28 326.01 339.18 C 325.83 339.84 325.65 340.50 325.47 341.15 C 320.54 340.38 315.61 339.61 310.68 338.84 C 310.51 339.50 310.34 340.17 310.17 340.83 C 312.00 341.65 313.90 342.34 315.62 343.34 C 316.59 343.90 317.25 344.98 318.05 345.83 C 316.87 346.52 315.64 347.87 314.52 347.78 C 311.84 347.58 309.21 346.70 306.41 346.64 C 309.08 350.42 313.01 351.68 317.02 350.58 C 319.08 350.02 320.53 347.26 322.86 344.87 C 326.05 346.05 329.06 343.22 329.35 339.56 C 329.52 337.44 325.94 335.03 323.85 332.51 C 324.08 332.36 325.06 331.76 326.51 330.85 C 324.81 329.79 323.39 328.90 321.94 327.99 C 326.02 323.91 333.98 325.24 335.77 330.33 C 337.69 335.81 339.05 341.48 340.97 346.95 C 341.70 349.03 342.92 351.37 344.63 352.59 C 367.21 368.79 390.00 384.70 412.54 400.96 C 420.72 406.86 429.94 407.80 439.85 407.87 L 439.85 451.32 C 436.38 451.32 432.80 451.28 429.23 451.32 C 419.60 451.46 409.97 451.72 400.34 451.72 C 399.06 451.72 397.46 450.82 396.54 449.83 C 386.41 438.91 376.35 427.93 366.34 416.90 C 358.11 407.83 350.35 398.30 341.72 389.62 C 329.96 377.78 317.58 366.55 305.44 355.09 C 303.87 353.61 302.00 352.44 300.50 350.90 C 297.87 348.20 295.96 345.30 300.55 342.30 Z" fill="#ffffff" fill-rule="nonzero" group-id="1" node-id="101" stroke="none" target-height="128.67001" target-width="143.89005" target-x="295.96" target-y="323.05"/><path d="M 694.55 693.22 C 683.81 690.58 680.40 681.90 674.75 675.23 C 671.92 684.07 682.39 689.36 680.59 698.29 C 674.11 695.08 669.23 690.35 665.82 684.47 C 662.32 678.43 659.82 671.82 656.78 665.51 C 651.19 653.91 645.50 642.37 639.91 630.78 C 636.15 622.99 632.61 615.09 628.76 607.35 C 627.31 604.44 625.29 601.82 623.80 599.48 C 638.98 593.74 654.72 587.79 671.09 581.60 C 672.57 586.47 674.38 592.07 675.97 597.72 C 680.33 613.21 684.69 628.71 688.87 644.25 C 690.45 650.12 693.32 654.61 698.58 658.05 C 708.08 664.27 711.18 668.70 712.54 675.99 C 707.67 676.09 704.76 672.99 701.54 670.11 C 699.57 668.35 696.94 667.33 694.61 665.98 C 695.85 668.30 696.79 670.84 698.38 672.89 C 701.51 676.93 705.23 680.60 703.71 686.70 C 697.11 684.45 693.43 679.36 689.64 674.32 C 688.89 673.32 687.48 672.81 686.37 672.08 C 686.39 673.55 685.89 675.30 686.51 676.44 C 688.33 679.79 690.79 682.79 692.61 686.14 C 693.58 687.92 693.74 690.13 694.54 693.22 Z" fill="#ffffff" fill-rule="nonzero" group-id="1" node-id="103" stroke="none" target-height="116.69006" target-width="88.73999" target-x="623.8" target-y="581.6"/><path d="M 591.20 937.38 C 596.00 933.89 600.59 930.71 604.95 927.25 C 605.87 926.52 606.58 924.59 606.31 923.48 C 604.97 918.09 603.27 912.79 601.58 907.06 C 611.07 906.30 619.99 905.70 628.89 904.82 C 632.13 904.50 633.45 906.01 633.88 908.78 C 634.82 914.83 635.72 920.88 636.48 926.95 C 636.61 927.99 636.23 929.24 635.70 930.19 C 628.24 943.74 602.46 947.90 591.20 937.38 Z" fill="#ffffff" fill-rule="nonzero" group-id="1" node-id="105" stroke="none" target-height="43.400024" target-width="45.409973" target-x="591.2" target-y="904.5"/><path d="M 438.44 914.45 C 435.71 922.67 433.13 930.48 430.48 938.28 C 430.29 938.84 429.72 939.49 429.17 939.69 C 415.45 944.64 401.55 945.83 386.14 941.63 C 391.07 939.41 395.10 937.91 398.77 935.79 C 400.50 934.79 402.16 932.77 402.76 930.87 C 404.79 924.40 406.22 917.75 408.20 911.26 C 408.50 910.26 410.67 909.01 411.74 909.20 C 420.53 910.75 429.26 912.61 438.44 914.46 Z" fill="#ffffff" fill-rule="nonzero" group-id="1" node-id="107" stroke="none" target-height="36.820007" target-width="52.30005" target-x="386.13998" target-y="909.0101"/><path d="M 665.98 964.43 C 538.61 971.88 411.19 973.10 283.72 969.37 C 411.17 969.15 538.62 969.09 665.98 964.43 Z" fill="#ffffff" fill-rule="nonzero" group-id="1" node-id="109" stroke="none" target-height="8.669983" target-width="382.25998" target-x="283.72" target-y="964.43"/><path d="M 572.45 571.77 C 575.34 577.04 579.68 582.65 581.61 588.99 C 584.76 599.33 586.24 610.18 588.60 620.77 C 593.66 643.48 599.71 666.02 603.71 688.91 C 607.80 712.31 610.09 736.04 612.86 759.66 C 615.87 785.26 618.49 810.91 621.34 836.53 C 623.54 856.33 625.83 876.12 628.05 895.91 C 628.13 896.59 627.91 897.30 627.83 898.00 C 627.39 898.08 626.94 898.15 626.50 898.23 C 626.11 896.40 625.56 894.58 625.34 892.72 C 623.25 874.75 621.07 856.79 619.18 838.80 C 616.00 808.53 613.20 778.23 609.87 747.98 C 608.14 732.28 606.29 716.54 603.29 701.04 C 598.27 675.11 592.28 649.37 586.75 623.54 C 586.26 621.27 586.25 618.90 585.74 616.64 C 583.61 607.17 581.49 597.70 579.08 588.30 C 578.58 586.34 577.17 584.43 575.72 582.95 C 571.64 578.77 571.14 577.22 572.46 571.75 Z" fill="#ffffff" fill-rule="nonzero" group-id="1" node-id="111" stroke="none" target-height="326.47992" target-width="56.98999" target-x="571.14" target-y="571.75"/><path d="M 517.62 605.57 C 516.77 609.67 515.90 613.77 515.07 617.88 C 512.01 633.00 509.57 648.28 505.79 663.22 C 499.25 689.14 492.39 715.00 484.76 740.62 C 471.24 785.98 456.96 831.11 443.21 876.40 C 440.51 885.29 438.82 894.48 436.58 903.51 C 436.13 905.35 435.33 907.10 434.70 908.90 C 434.24 908.82 433.78 908.74 433.32 908.66 C 433.53 907.23 433.57 905.75 433.97 904.38 C 440.31 882.37 446.56 860.33 453.10 838.37 C 464.61 799.68 476.47 761.09 487.82 722.36 C 491.14 711.05 493.04 699.34 495.97 687.91 C 499.38 674.58 503.55 661.43 506.73 648.05 C 509.88 634.80 512.22 621.35 514.94 608.00 C 515.12 607.09 515.54 606.23 515.85 605.35 C 516.44 605.43 517.03 605.51 517.62 605.58 Z" fill="#ffffff" fill-rule="nonzero" group-id="1" node-id="113" stroke="none" target-height="303.55005" target-width="84.29999" target-x="433.32" target-y="605.35"/><path d="M 561.73 390.82 L 594.00 390.82 C 592.85 395.42 591.56 400.49 590.31 405.56 C 589.95 407.00 589.02 408.71 589.46 409.88 C 591.38 414.96 587.67 415.93 584.45 416.97 C 579.10 418.70 573.67 420.39 567.99 418.12 C 562.65 415.98 561.89 412.54 564.98 407.75 C 566.01 406.15 565.76 403.32 565.28 401.24 C 564.48 397.78 563.01 394.47 561.73 390.81 Z" fill="#ffffff" fill-rule="nonzero" group-id="1" node-id="115" stroke="none" target-height="29.580017" target-width="32.27002" target-x="561.73" target-y="390.81"/><path d="M 548.48 416.16 C 551.74 414.85 554.94 413.56 558.78 412.01 C 560.20 421.14 568.00 422.13 574.51 424.19 C 576.37 423.44 578.62 422.53 581.31 421.45 C 581.97 425.05 582.49 427.92 583.02 430.78 C 583.30 430.76 583.57 430.75 583.85 430.73 C 583.64 428.80 583.57 426.84 583.19 424.94 C 582.62 422.08 583.78 420.12 586.51 420.12 C 587.85 420.12 589.57 421.72 590.44 423.04 C 591.48 424.60 591.79 426.64 592.42 428.47 C 592.81 428.36 593.21 428.25 593.60 428.14 C 592.51 424.79 591.42 421.44 590.34 418.11 C 595.47 415.63 596.22 416.31 603.07 428.84 C 602.22 426.19 601.38 423.55 600.39 420.46 C 601.36 420.80 602.01 420.90 602.49 421.23 C 605.34 423.21 608.15 425.24 611.05 427.31 C 593.36 437.03 575.68 437.80 557.73 428.93 C 552.47 426.33 549.37 422.19 548.48 416.16 Z" fill="#ffffff" fill-rule="nonzero" group-id="1" node-id="117" stroke="none" target-height="25.789978" target-width="62.570007" target-x="548.48" target-y="412.01"/><path d="M 251.11 131.57 C 250.56 132.30 250.13 133.51 249.44 133.67 C 248.51 133.89 246.99 133.67 246.42 133.03 C 241.13 127.05 235.90 121.01 230.93 114.76 C 230.27 113.92 230.63 111.47 231.40 110.41 C 247.57 88.06 263.83 65.78 280.26 43.62 C 281.17 42.40 283.72 42.39 285.50 41.81 C 285.14 43.51 285.28 45.57 284.35 46.85 C 269.55 67.14 254.69 87.38 239.65 107.48 C 236.91 111.14 236.45 113.69 240.02 117.13 C 243.46 120.45 246.16 124.54 249.13 128.34 C 249.84 129.25 250.35 130.31 251.11 131.56 Z" fill="#ffffff" fill-rule="nonzero" group-id="1" node-id="119" stroke="none" target-height="92.08" target-width="55.22998" target-x="230.27002" target-y="41.81"/><path d="M 423.38 964.15 C 426.05 963.77 428.71 963.09 431.39 963.05 C 463.95 962.51 496.50 962.08 529.06 961.59 C 535.86 961.49 542.65 961.27 549.45 961.19 C 550.99 961.17 552.54 961.50 554.08 961.66 C 554.06 962.29 554.05 962.91 554.03 963.54 L 423.67 966.34 C 423.57 965.61 423.48 964.88 423.38 964.15 Z" fill="#ffffff" fill-rule="nonzero" group-id="1" node-id="121" stroke="none" target-height="5.170044" target-width="130.70001" target-x="423.38" target-y="961.17"/><path d="M 443.11 454.60 C 444.09 451.97 444.87 449.87 445.75 447.50 C 442.63 445.16 442.46 442.15 445.37 439.90 C 444.65 437.62 443.29 435.50 443.66 433.74 C 443.90 432.57 446.51 431.67 448.21 431.08 C 449.72 430.55 451.44 430.60 453.28 430.36 C 454.95 434.41 454.76 437.49 449.96 438.37 C 451.66 439.29 453.23 440.14 454.80 441.00 C 453.47 443.38 452.13 445.76 450.89 447.98 C 451.30 447.94 452.67 447.81 453.98 447.69 C 455.85 453.18 452.56 455.52 443.10 454.60 Z" fill="#ffffff" fill-rule="nonzero" group-id="1" node-id="123" stroke="none" target-height="25.159943" target-width="13.390045" target-x="442.46" target-y="430.36002"/><path d="M 454.60 413.19 C 453.80 416.31 453.13 418.97 452.47 421.55 C 452.83 423.03 454.17 425.28 453.54 426.59 C 451.62 430.58 447.70 430.14 443.84 429.73 C 442.41 425.91 442.37 422.92 448.92 422.61 C 446.18 421.72 444.79 421.27 443.43 420.82 C 442.26 413.82 443.88 412.57 454.60 413.18 Z" fill="#ffffff" fill-rule="nonzero" group-id="1" node-id="125" stroke="none" target-height="18.00998" target-width="12.339966" target-x="442.26004" target-y="412.57"/><path d="M 621.70 595.01 C 620.94 591.97 620.17 588.92 619.15 584.85 C 622.53 583.49 626.37 580.70 629.92 581.04 C 631.85 581.22 633.28 586.72 635.13 590.16 C 629.95 592.03 625.82 593.51 621.70 595.00 L 621.70 595.02 Z" fill="#ffffff" fill-rule="nonzero" group-id="1" node-id="127" stroke="none" target-height="14.320007" target-width="15.97998" target-x="619.15" target-y="580.7"/><path d="M 644.06 587.40 C 641.42 588.42 639.00 589.36 636.05 590.51 C 634.70 586.58 633.45 582.93 632.20 579.29 C 638.79 575.72 640.80 574.33 644.06 587.40 Z" fill="#ffffff" fill-rule="nonzero" group-id="1" node-id="129" stroke="none" target-height="16.179993" target-width="11.859985" target-x="632.2" target-y="574.33"/><path d="M 652.46 584.43 C 650.03 585.29 648.22 585.93 645.89 586.75 C 644.64 583.18 643.47 579.86 642.19 576.21 C 644.33 575.17 646.21 574.25 648.67 573.05 C 649.94 576.85 651.09 580.32 652.46 584.43 Z" fill="#ffffff" fill-rule="nonzero" group-id="1" node-id="131" stroke="none" target-height="13.700012" target-width="10.27002" target-x="642.19" target-y="573.05"/><path d="M 455.26 404.95 C 453.67 411.38 448.72 414.07 444.46 411.87 C 443.67 411.46 442.90 410.07 442.95 409.19 C 443.02 408.10 443.81 406.29 444.56 406.15 C 447.84 405.51 451.22 405.36 455.26 404.96 Z" fill="#ffffff" fill-rule="nonzero" group-id="1" node-id="133" stroke="none" target-height="9.119995" target-width="12.360016" target-x="442.9" target-y="404.95"/><path d="M 669.70 575.68 C 666.83 577.21 663.98 579.25 663.60 578.86 C 661.71 576.94 660.21 574.47 659.24 571.93 C 659.07 571.47 662.91 568.58 663.39 568.93 C 665.51 570.44 667.08 572.72 669.70 575.68 Z" fill="#ffffff" fill-rule="nonzero" group-id="1" node-id="135" stroke="none" target-height="10.669983" target-width="10.630005" target-x="659.07" target-y="568.58"/><path d="M 653.67 583.76 C 652.90 580.32 652.12 577.80 651.86 575.23 C 651.76 574.19 652.59 572.33 653.37 572.09 C 654.41 571.78 656.38 572.32 656.95 573.17 C 658.37 575.31 659.23 577.83 660.47 580.52 C 658.23 581.59 656.36 582.48 653.67 583.75 Z" fill="#ffffff" fill-rule="nonzero" group-id="1" node-id="137" stroke="none" target-height="11.97998" target-width="8.709961" target-x="651.76" target-y="571.78"/><path d="M 560.42 409.69 C 555.52 411.68 551.96 413.13 548.00 414.74 C 547.33 412.23 546.74 410.05 545.96 407.11 C 550.68 406.84 555.09 405.78 560.43 409.69 Z" fill="#ffffff" fill-rule="nonzero" group-id="1" node-id="139" stroke="none" target-height="8.959991" target-width="14.469971" target-x="545.96" target-y="405.78"/><path d="M 454.63 462.53 C 454.65 468.17 452.41 470.07 444.33 471.90 L 444.33 465.51 C 447.36 464.63 450.77 463.65 454.63 462.53 Z" fill="#ffffff" fill-rule="nonzero" group-id="1" node-id="141" stroke="none" target-height="9.369995" target-width="10.320007" target-x="444.33" target-y="462.53"/><path d="M 456.04 399.20 C 454.39 405.77 449.60 404.05 445.91 403.89 C 444.42 403.83 443.02 401.82 441.57 400.69 C 441.87 400.19 442.17 399.69 442.48 399.20 L 456.04 399.20 Z" fill="#ffffff" fill-rule="nonzero" group-id="1" node-id="143" stroke="none" target-height="6.569977" target-width="14.470001" target-x="441.57" target-y="399.2"/><path d="M 443.83 457.51 C 446.81 456.69 449.16 455.87 451.58 455.46 C 452.63 455.28 453.83 455.97 454.96 456.27 C 454.54 457.57 454.49 459.58 453.63 460.03 C 450.88 461.45 447.84 462.29 444.20 463.61 C 444.06 461.27 443.95 459.58 443.83 457.51 Z" fill="#ffffff" fill-rule="nonzero" group-id="1" node-id="145" stroke="none" target-height="8.329987" target-width="11.130005" target-x="443.83" target-y="455.28"/><path d="M 526.92 676.47 C 528.97 668.29 531.03 660.11 533.08 651.93 C 533.81 652.11 534.53 652.28 535.26 652.46 C 533.25 660.66 531.24 668.86 529.24 677.06 C 528.47 676.87 527.70 676.67 526.92 676.48 Z" fill="#ffffff" fill-rule="nonzero" group-id="1" node-id="147" stroke="none" target-height="25.130005" target-width="8.340027" target-x="526.92" target-y="651.93"/><path d="M 676.50 572.32 C 670.79 576.80 669.56 576.26 667.42 568.32 C 673.52 564.57 674.58 565.04 676.50 572.32 Z" fill="#ffffff" fill-rule="nonzero" group-id="1" node-id="149" stroke="none" target-height="12.22998" target-width="9.080017" target-x="667.42" target-y="564.57"/><path d="M 683.86 569.32 C 682.29 570.08 681.00 570.71 678.70 571.82 C 677.95 568.33 677.10 565.41 676.81 562.44 C 676.72 561.47 678.08 560.36 678.77 559.32 C 679.70 560.11 681.05 560.72 681.47 561.73 C 682.48 564.09 683.04 566.65 683.85 569.33 Z" fill="#ffffff" fill-rule="nonzero" group-id="1" node-id="151" stroke="none" target-height="12.5" target-width="7.1400146" target-x="676.72" target-y="559.32"/><path d="M 621.70 594.99 C 619.51 595.37 617.32 595.75 614.66 596.21 C 613.88 592.19 613.12 588.26 612.35 584.33 C 612.81 584.03 613.27 583.74 613.73 583.44 C 616.39 587.29 619.04 591.14 621.70 595.00 C 621.70 595.00 621.70 594.99 621.70 594.99 Z" fill="#ffffff" fill-rule="nonzero" group-id="1" node-id="153" stroke="none" target-height="12.77002" target-width="9.350037" target-x="612.35" target-y="583.44"/><path d="M 454.56 471.41 C 452.75 475.71 447.61 474.40 444.76 476.95 C 444.44 476.39 444.11 475.84 443.79 475.28 C 447.11 473.53 450.42 471.79 453.74 470.04 C 454.01 470.50 454.29 470.95 454.56 471.41 Z" fill="#ffffff" fill-rule="nonzero" group-id="1" node-id="155" stroke="none" target-height="6.909973" target-width="10.769989" target-x="443.79" target-y="470.04"/></g></svg>
